<svg width="600" height="600" viewBox="0 0 600 600" fill="none" xmlns="http://www.w3.org/2000/svg">
<mask id="mask0_2062_714" style="mask-type:luminance" maskUnits="userSpaceOnUse" x="96" y="133" width="408" height="249">
<path d="M294.813 381.422H305.22C308.544 381.422 311.701 380.116 314.077 377.752L376.33 315.153C378.706 312.754 380.033 309.564 380.033 306.207V289.765C380.033 287.501 381.84 285.682 384.116 285.682H406.057L498.193 192.844L499.81 191.249C502.153 188.884 503.48 185.66 503.48 182.336V145.616C503.48 138.655 497.847 133 490.931 133H409.035C405.711 133 402.554 134.305 400.178 136.67L313.698 223.753C310.318 227.166 309.147 232.252 310.731 236.815L328.845 289.542C329.604 291.717 329.158 294.171 327.641 295.933L304.975 322.726C302.387 325.794 297.669 325.794 295.081 322.726L272.248 295.933C270.764 294.182 270.284 291.717 271.043 289.52L289.292 236.826C290.876 232.264 289.738 227.177 286.325 223.764L199.877 136.681C197.501 134.316 194.311 133.011 190.987 133.011H109.08C102.186 133.011 96.5532 138.666 96.5532 145.627V182.347C96.5532 185.671 97.8806 188.895 100.223 191.26L101.84 192.855L193.977 285.694H216.207C218.327 285.694 220 287.389 220 289.497V306.229C220 309.586 221.327 312.777 223.703 315.175L285.956 377.774C288.299 380.139 291.489 381.444 294.813 381.444V381.422Z" fill="white"/>
</mask>
<g mask="url(#mask0_2062_714)">
<path d="M503.469 380.718H96.5645V381.421H503.469V380.718Z" fill="#205026"/>
<path d="M503.469 379.414H96.5645V381.388H503.469V379.414Z" fill="#205126"/>
<path d="M503.469 378.065H96.5645V380.051H503.469V378.065Z" fill="#215126"/>
<path d="M503.469 376.76H96.5645V378.745H503.469V376.76Z" fill="#225226"/>
<path d="M503.469 375.422H96.5645V377.407H503.469V375.422Z" fill="#235326"/>
<path d="M503.469 374.105H96.5645V376.091H503.469V374.105Z" fill="#245326"/>
<path d="M503.469 372.766H96.5645V374.773H503.469V372.766Z" fill="#245426"/>
<path d="M503.469 371.461H96.5645V373.446H503.469V371.461Z" fill="#255425"/>
<path d="M503.469 370.122H96.5645V372.13H503.469V370.122Z" fill="#265525"/>
<path d="M503.469 368.806H96.5645V370.791H503.469V368.806Z" fill="#275625"/>
<path d="M503.469 367.501H96.5645V369.486H503.469V367.501Z" fill="#285625"/>
<path d="M503.469 366.162H96.5645V368.136H503.469V366.162Z" fill="#285725"/>
<path d="M503.469 364.846H96.5645V366.82H503.469V364.846Z" fill="#295825"/>
<path d="M503.469 363.507H96.5645V365.492H503.469V363.507Z" fill="#2A5825"/>
<path d="M503.469 362.203H96.5645V364.188H503.469V362.203Z" fill="#2B5925"/>
<path d="M503.469 360.854H96.5645V362.839H503.469V360.854Z" fill="#2C5925"/>
<path d="M503.469 359.548H96.5645V361.533H503.469V359.548Z" fill="#2C5A25"/>
<path d="M503.469 358.209H96.5645V360.217H503.469V358.209Z" fill="#2D5B25"/>
<path d="M503.469 356.894H96.5645V358.879H503.469V356.894Z" fill="#2E5B25"/>
<path d="M503.469 355.588H96.5645V357.573H503.469V355.588Z" fill="#2F5C25"/>
<path d="M503.469 354.25H96.5645V356.236H503.469V354.25Z" fill="#2F5C25"/>
<path d="M503.469 352.934H96.5645V354.919H503.469V352.934Z" fill="#305D25"/>
<path d="M503.469 351.596H96.5645V353.57H503.469V351.596Z" fill="#315E25"/>
<path d="M503.469 350.29H96.5645V352.264H503.469V350.29Z" fill="#325E25"/>
<path d="M503.469 348.938H96.5645V350.924H503.469V348.938Z" fill="#335F25"/>
<path d="M503.469 347.634H96.5645V349.619H503.469V347.634Z" fill="#335F25"/>
<path d="M503.469 346.296H96.5645V348.303H503.469V346.296Z" fill="#346025"/>
<path d="M503.469 344.979H96.5645V346.954H503.469V344.979Z" fill="#356125"/>
<path d="M503.469 343.641H96.5645V345.648H503.469V343.641Z" fill="#366125"/>
<path d="M503.469 342.337H96.5645V344.322H503.469V342.337Z" fill="#376225"/>
<path d="M503.469 341.021H96.5645V343.007H503.469V341.021Z" fill="#376225"/>
<path d="M503.469 339.681H96.5645V341.666H503.469V339.681Z" fill="#386325"/>
<path d="M503.469 338.378H96.5645V340.363H503.469V338.378Z" fill="#396425"/>
<path d="M503.469 337.027H96.5645V339.002H503.469V337.027Z" fill="#3A6425"/>
<path d="M503.469 335.724H96.5645V337.709H503.469V335.724Z" fill="#3B6525"/>
<path d="M503.469 334.384H96.5645V336.392H503.469V334.384Z" fill="#3B6525"/>
<path d="M503.469 333.066H96.5645V335.052H503.469V333.066Z" fill="#3C6625"/>
<path d="M503.469 331.728H96.5645V333.735H503.469V331.728Z" fill="#3D6725"/>
<path d="M503.469 330.424H96.5645V332.398H503.469V330.424Z" fill="#3E6724"/>
<path d="M503.469 329.107H96.5645V331.082H503.469V329.107Z" fill="#3F6824"/>
<path d="M503.469 327.768H96.5645V329.753H503.469V327.768Z" fill="#3F6824"/>
<path d="M503.469 326.464H96.5645V328.449H503.469V326.464Z" fill="#406924"/>
<path d="M503.469 325.125H96.5645V327.11H503.469V325.125Z" fill="#416A24"/>
<path d="M503.469 323.809H96.5645V325.794H503.469V323.809Z" fill="#426A24"/>
<path d="M503.469 322.471H96.5645V324.479H503.469V322.471Z" fill="#426B24"/>
<path d="M503.469 321.165H96.5645V323.151H503.469V321.165Z" fill="#436C24"/>
<path d="M503.469 319.816H96.5645V321.824H503.469V319.816Z" fill="#446C24"/>
<path d="M503.469 318.511H96.5645V320.496H503.469V318.511Z" fill="#456D24"/>
<path d="M503.469 317.205H96.5645V319.191H503.469V317.205Z" fill="#466D24"/>
<path d="M503.469 315.855H96.5645V317.83H503.469V315.855Z" fill="#466E24"/>
<path d="M503.469 314.55H96.5645V316.524H503.469V314.55Z" fill="#476F24"/>
<path d="M503.469 313.212H96.5645V315.197H503.469V313.212Z" fill="#486F24"/>
<path d="M503.469 311.895H96.5645V313.88H503.469V311.895Z" fill="#497024"/>
<path d="M503.469 310.558H96.5645V312.543H503.469V310.558Z" fill="#4A7024"/>
<path d="M503.469 309.252H96.5645V311.226H503.469V309.252Z" fill="#4A7124"/>
<path d="M503.469 307.901H96.5645V309.909H503.469V307.901Z" fill="#4B7224"/>
<path d="M503.469 306.597H96.5645V308.582H503.469V306.597Z" fill="#4C7224"/>
<path d="M503.469 305.29H96.5645V307.276H503.469V305.29Z" fill="#4D7324"/>
<path d="M503.469 303.942H96.5645V305.928H503.469V303.942Z" fill="#4E7324"/>
<path d="M503.469 302.637H96.5645V304.622H503.469V302.637Z" fill="#4E7424"/>
<path d="M503.469 301.299H96.5645V303.273H503.469V301.299Z" fill="#4F7524"/>
<path d="M503.469 299.982H96.5645V301.968H503.469V299.982Z" fill="#507524"/>
<path d="M503.469 298.645H96.5645V300.63H503.469V298.645Z" fill="#517624"/>
<path d="M503.469 297.34H96.5645V299.325H503.469V297.34Z" fill="#527624"/>
<path d="M503.469 295.988H96.5645V297.996H503.469V295.988Z" fill="#527724"/>
<path d="M503.469 294.685H96.5645V296.659H503.469V294.685Z" fill="#537824"/>
<path d="M503.469 293.347H96.5645V295.354H503.469V293.347Z" fill="#547824"/>
<path d="M503.469 292.029H96.5645V294.015H503.469V292.029Z" fill="#557924"/>
<path d="M503.469 290.724H96.5645V292.709H503.469V290.724Z" fill="#557924"/>
<path d="M503.469 289.387H96.5645V291.372H503.469V289.387Z" fill="#567A24"/>
<path d="M503.469 288.07H96.5645V290.056H503.469V288.07Z" fill="#577B23"/>
<path d="M503.469 286.731H96.5645V288.717H503.469V286.731Z" fill="#587B23"/>
<path d="M503.469 285.427H96.5645V287.412H503.469V285.427Z" fill="#597C23"/>
<path d="M503.469 284.087H96.5645V286.095H503.469V284.087Z" fill="#597C23"/>
<path d="M503.469 282.771H96.5645V284.756H503.469V282.771Z" fill="#5A7D23"/>
<path d="M503.469 281.433H96.5645V283.44H503.469V281.433Z" fill="#5B7E23"/>
<path d="M503.469 280.127H96.5645V282.101H503.469V280.127Z" fill="#5C7E23"/>
<path d="M503.469 278.811H96.5645V280.785H503.469V278.811Z" fill="#5D7F23"/>
<path d="M503.469 277.473H96.5645V279.458H503.469V277.473Z" fill="#5D8023"/>
<path d="M503.469 276.167H96.5645V278.153H503.469V276.167Z" fill="#5E8023"/>
<path d="M503.469 274.819H96.5645V276.805H503.469V274.819Z" fill="#5F8123"/>
<path d="M503.469 273.513H96.5645V275.487H503.469V273.513Z" fill="#608123"/>
<path d="M503.469 272.174H96.5645V274.159H503.469V272.174Z" fill="#618223"/>
<path d="M503.469 270.859H96.5645V272.845H503.469V270.859Z" fill="#618323"/>
<path d="M503.469 269.52H96.5645V271.527H503.469V269.52Z" fill="#628323"/>
<path d="M503.469 268.214H96.5645V270.199H503.469V268.214Z" fill="#638423"/>
<path d="M503.469 266.898H96.5645V268.884H503.469V266.898Z" fill="#648423"/>
<path d="M503.469 265.56H96.5645V267.534H503.469V265.56Z" fill="#658523"/>
<path d="M503.469 264.254H96.5645V266.239H503.469V264.254Z" fill="#658623"/>
<path d="M503.469 262.905H96.5645V264.891H503.469V262.905Z" fill="#668623"/>
<path d="M503.469 261.601H96.5645V263.586H503.469V261.601Z" fill="#678723"/>
<path d="M503.469 260.26H96.5645V262.234H503.469V260.26Z" fill="#688723"/>
<path d="M503.469 258.944H96.5645V260.919H503.469V258.944Z" fill="#688823"/>
<path d="M503.469 257.607H96.5645V259.615H503.469V257.607Z" fill="#698923"/>
<path d="M503.469 256.301H96.5645V258.286H503.469V256.301Z" fill="#6A8923"/>
<path d="M503.469 254.984H96.5645V256.97H503.469V254.984Z" fill="#6B8A23"/>
<path d="M503.469 253.646H96.5645V255.632H503.469V253.646Z" fill="#6C8A23"/>
<path d="M503.469 252.342H96.5645V254.327H503.469V252.342Z" fill="#6C8B23"/>
<path d="M503.469 250.991H96.5645V252.977H503.469V250.991Z" fill="#6D8C23"/>
<path d="M503.469 249.688H96.5645V251.674H503.469V249.688Z" fill="#6E8C23"/>
<path d="M503.469 248.35H96.5645V250.335H503.469V248.35Z" fill="#6F8D23"/>
<path d="M503.469 247.033H96.5645V249.018H503.469V247.033Z" fill="#708E22"/>
<path d="M503.469 245.693H96.5645V247.701H503.469V245.693Z" fill="#718E22"/>
<path d="M503.469 244.39H96.5645V246.364H503.469V244.39Z" fill="#728F22"/>
<path d="M503.469 243.05H96.5645V245.058H503.469V243.05Z" fill="#739022"/>
<path d="M503.469 241.733H96.5645V243.719H503.469V241.733Z" fill="#749122"/>
<path d="M503.469 240.429H96.5645V242.414H503.469V240.429Z" fill="#759122"/>
<path d="M503.469 239.091H96.5645V241.076H503.469V239.091Z" fill="#769222"/>
<path d="M503.469 237.773H96.5645V239.748H503.469V237.773Z" fill="#769322"/>
<path d="M503.469 236.437H96.5645V238.422H503.469V236.437Z" fill="#779322"/>
<path d="M503.469 235.131H96.5645V237.116H503.469V235.131Z" fill="#789422"/>
<path d="M503.469 233.781H96.5645V235.789H503.469V233.781Z" fill="#799522"/>
<path d="M503.469 232.476H96.5645V234.461H503.469V232.476Z" fill="#7A9622"/>
<path d="M503.469 231.138H96.5645V233.145H503.469V231.138Z" fill="#7B9622"/>
<path d="M503.469 229.82H96.5645V231.795H503.469V229.82Z" fill="#7C9722"/>
<path d="M503.469 228.516H96.5645V230.501H503.469V228.516Z" fill="#7D9822"/>
<path d="M503.469 227.177H96.5645V229.162H503.469V227.177Z" fill="#7E9922"/>
<path d="M503.469 225.861H96.5645V227.847H503.469V225.861Z" fill="#7F9922"/>
<path d="M503.469 224.521H96.5645V226.496H503.469V224.521Z" fill="#809A22"/>
<path d="M503.469 223.218H96.5645V225.192H503.469V223.218Z" fill="#819B22"/>
<path d="M503.469 221.868H96.5645V223.854H503.469V221.868Z" fill="#829C22"/>
<path d="M503.469 220.564H96.5645V222.55H503.469V220.564Z" fill="#839C22"/>
<path d="M503.469 219.225H96.5645V221.232H503.469V219.225Z" fill="#849D22"/>
<path d="M503.469 217.908H96.5645V219.894H503.469V217.908Z" fill="#859E22"/>
<path d="M503.469 216.603H96.5645V218.588H503.469V216.603Z" fill="#869F22"/>
<path d="M503.469 215.265H96.5645V217.25H503.469V215.265Z" fill="#879F22"/>
<path d="M503.469 213.949H96.5645V215.935H503.469V213.949Z" fill="#88A021"/>
<path d="M503.469 212.61H96.5645V214.596H503.469V212.61Z" fill="#89A121"/>
<path d="M503.469 211.305H96.5645V213.29H503.469V211.305Z" fill="#8AA221"/>
<path d="M503.469 209.955H96.5645V211.929H503.469V209.955Z" fill="#8BA221"/>
<path d="M503.469 208.649H96.5645V210.624H503.469V208.649Z" fill="#8CA321"/>
<path d="M503.469 207.311H96.5645V209.318H503.469V207.311Z" fill="#8DA421"/>
<path d="M503.469 205.995H96.5645V207.981H503.469V205.995Z" fill="#8EA521"/>
<path d="M503.469 204.657H96.5645V206.665H503.469V204.657Z" fill="#8FA521"/>
<path d="M503.469 203.352H96.5645V205.337H503.469V203.352Z" fill="#90A621"/>
<path d="M503.469 202.036H96.5645V204.022H503.469V202.036Z" fill="#91A721"/>
<path d="M503.469 200.696H96.5645V202.682H503.469V200.696Z" fill="#92A721"/>
<path d="M503.469 199.391H96.5645V201.376H503.469V199.391Z" fill="#93A821"/>
<path d="M503.469 198.053H96.5645V200.038H503.469V198.053Z" fill="#94A921"/>
<path d="M503.469 196.736H96.5645V198.722H503.469V196.736Z" fill="#94AA21"/>
<path d="M503.469 195.398H96.5645V197.406H503.469V195.398Z" fill="#95AA21"/>
<path d="M503.469 194.093H96.5645V196.067H503.469V194.093Z" fill="#96AB21"/>
<path d="M503.469 192.742H96.5645V194.75H503.469V192.742Z" fill="#97AC21"/>
<path d="M503.469 191.438H96.5645V193.424H503.469V191.438Z" fill="#98AD21"/>
<path d="M503.469 190.122H96.5645V192.108H503.469V190.122Z" fill="#99AD21"/>
<path d="M503.469 188.783H96.5645V190.769H503.469V188.783Z" fill="#9AAE21"/>
<path d="M503.469 187.479H96.5645V189.453H503.469V187.479Z" fill="#9BAF21"/>
<path d="M503.469 186.141H96.5645V188.126H503.469V186.141Z" fill="#9CB021"/>
<path d="M503.469 184.824H96.5645V186.81H503.469V184.824Z" fill="#9DB021"/>
<path d="M503.469 183.485H96.5645V185.471H503.469V183.485Z" fill="#9EB121"/>
<path d="M503.469 182.181H96.5645V184.166H503.469V182.181Z" fill="#9FB221"/>
<path d="M503.469 180.831H96.5645V182.839H503.469V180.831Z" fill="#A0B321"/>
<path d="M503.469 179.525H96.5645V181.5H503.469V179.525Z" fill="#A1B320"/>
<path d="M503.469 178.22H96.5645V180.205H503.469V178.22Z" fill="#A2B420"/>
<path d="M503.469 176.869H96.5645V178.855H503.469V176.869Z" fill="#A3B520"/>
<path d="M503.469 175.566H96.5645V177.552H503.469V175.566Z" fill="#A4B620"/>
<path d="M503.469 174.227H96.5645V176.201H503.469V174.227Z" fill="#A5B620"/>
<path d="M503.469 172.912H96.5645V174.886H503.469V172.912Z" fill="#A6B720"/>
<path d="M503.469 171.573H96.5645V173.559H503.469V171.573Z" fill="#A7B820"/>
<path d="M503.469 170.267H96.5645V172.252H503.469V170.267Z" fill="#A8B920"/>
<path d="M503.469 168.919H96.5645V170.927H503.469V168.919Z" fill="#A9B920"/>
<path d="M503.469 167.613H96.5645V169.599H503.469V167.613Z" fill="#AABA20"/>
<path d="M503.469 166.307H96.5645V168.292H503.469V166.307Z" fill="#ABBB20"/>
<path d="M503.469 164.959H96.5645V166.945H503.469V164.959Z" fill="#ACBB20"/>
<path d="M503.469 163.653H96.5645V165.639H503.469V163.653Z" fill="#ADBC20"/>
<path d="M503.469 162.314H96.5645V164.3H503.469V162.314Z" fill="#AEBD20"/>
<path d="M503.469 160.997H96.5645V162.983H503.469V160.997Z" fill="#AFBE20"/>
<path d="M503.469 159.659H96.5645V161.634H503.469V159.659Z" fill="#B0BE20"/>
<path d="M503.469 158.354H96.5645V160.328H503.469V158.354Z" fill="#B1BF20"/>
<path d="M503.469 157.016H96.5645V159.023H503.469V157.016Z" fill="#B2C020"/>
<path d="M503.469 155.699H96.5645V157.685H503.469V155.699Z" fill="#B2C120"/>
<path d="M503.469 154.36H96.5645V156.368H503.469V154.36Z" fill="#B3C120"/>
<path d="M503.469 153.057H96.5645V155.042H503.469V153.057Z" fill="#B4C220"/>
<path d="M503.469 151.738H96.5645V153.713H503.469V151.738Z" fill="#B5C320"/>
<path d="M503.469 150.401H96.5645V152.387H503.469V150.401Z" fill="#B6C420"/>
<path d="M503.469 149.085H96.5645V151.07H503.469V149.085Z" fill="#B7C420"/>
<path d="M503.469 147.747H96.5645V149.733H503.469V147.747Z" fill="#B8C520"/>
<path d="M503.469 146.441H96.5645V148.427H503.469V146.441Z" fill="#B9C61F"/>
<path d="M503.469 145.102H96.5645V147.109H503.469V145.102Z" fill="#BAC71F"/>
<path d="M503.469 143.787H96.5645V145.761H503.469V143.787Z" fill="#BBC71F"/>
<path d="M503.469 142.447H96.5645V144.455H503.469V142.447Z" fill="#BCC81F"/>
<path d="M503.469 141.142H96.5645V143.127H503.469V141.142Z" fill="#BDC91F"/>
<path d="M503.469 139.825H96.5645V141.811H503.469V139.825Z" fill="#BECA1F"/>
<path d="M503.469 138.487H96.5645V140.462H503.469V138.487Z" fill="#BFCA1F"/>
<path d="M503.469 137.183H96.5645V139.157H503.469V137.183Z" fill="#C0CB1F"/>
<path d="M503.469 135.834H96.5645V137.82H503.469V135.834Z" fill="#C1CC1F"/>
<path d="M503.469 134.527H96.5645V136.513H503.469V134.527Z" fill="#C2CD1F"/>
<path d="M503.469 133.188H96.5645V135.174H503.469V133.188Z" fill="#C3CD1F"/>
<path d="M503.469 131.874H96.5647V133.859H503.469V131.874Z" fill="#C4CE1F"/>
</g>
<mask id="mask1_2062_714" style="mask-type:luminance" maskUnits="userSpaceOnUse" x="0" y="212" width="284" height="255">
<path d="M283.647 451.805V419.491C283.647 415.72 282.164 412.084 279.509 409.429L267.15 396.97L200.123 329.463L198.483 327.834L194.244 323.551L186.369 315.631C183.714 312.943 180.111 311.448 176.341 311.448H156.609V291.649C156.609 287.846 155.092 284.243 152.471 281.554L87.5516 216.211C84.8968 213.523 81.2939 212.028 77.5571 212.028H14.1662C6.35806 212.028 0 218.42 0 226.273V257.862C0 261.632 1.51701 265.269 4.17178 267.924L67.8862 332.117C70.541 334.806 74.1439 336.3 77.9141 336.3H90.8756V355.107C90.8756 358.877 92.3592 362.514 95.0139 365.202L123.603 393.98L124.774 395.163L126.581 396.981L134.166 404.611L191.054 461.9C193.709 464.555 197.312 466.049 201.082 466.049H269.504C277.345 466.049 283.67 459.691 283.67 451.805H283.647Z" fill="white"/>
</mask>
<g mask="url(#mask1_2062_714)">
<path fill-rule="evenodd" clip-rule="evenodd" d="M236.386 507.568L169.281 439.96L239.353 368.962L306.481 436.581L236.386 507.568Z" fill="#085240"/>
<path fill-rule="evenodd" clip-rule="evenodd" d="M169.66 440.372L168.5 439.189L238.561 368.202L239.732 369.385L169.66 440.372Z" fill="#085240"/>
<path fill-rule="evenodd" clip-rule="evenodd" d="M168.879 439.58L167.708 438.398L237.803 367.399L238.974 368.582L168.879 439.58Z" fill="#085240"/>
<path fill-rule="evenodd" clip-rule="evenodd" d="M168.121 438.81L166.949 437.627L237.011 366.629L238.182 367.811L168.121 438.81Z" fill="#085241"/>
<path fill-rule="evenodd" clip-rule="evenodd" d="M167.328 438.009L166.157 436.827L236.252 365.84L237.39 367.022L167.328 438.009Z" fill="#085241"/>
<path fill-rule="evenodd" clip-rule="evenodd" d="M166.57 437.249L165.399 436.067L235.46 365.068L236.631 366.251L166.57 437.249Z" fill="#085341"/>
<path fill-rule="evenodd" clip-rule="evenodd" d="M165.778 436.446L164.607 435.264L234.668 364.276L235.839 365.459L165.778 436.446Z" fill="#085341"/>
<path fill-rule="evenodd" clip-rule="evenodd" d="M164.986 435.675L163.815 434.493L233.91 363.506L235.081 364.688L164.986 435.675Z" fill="#085342"/>
<path fill-rule="evenodd" clip-rule="evenodd" d="M164.228 434.885L163.056 433.702L233.129 362.704L234.289 363.887L164.228 434.885Z" fill="#085342"/>
<path fill-rule="evenodd" clip-rule="evenodd" d="M163.435 434.081L162.264 432.932L232.37 361.945L233.508 363.127L163.435 434.081Z" fill="#085342"/>
<path fill-rule="evenodd" clip-rule="evenodd" d="M162.677 433.311L161.506 432.14L231.578 361.142L232.75 362.324L162.677 433.311Z" fill="#085342"/>
<path fill-rule="evenodd" clip-rule="evenodd" d="M161.885 432.519L160.714 431.371L230.786 360.372L231.958 361.555L161.885 432.519Z" fill="#085343"/>
<path fill-rule="evenodd" clip-rule="evenodd" d="M161.093 431.751L159.922 430.568L230.028 359.581L231.199 360.763L161.093 431.751Z" fill="#085343"/>
<path fill-rule="evenodd" clip-rule="evenodd" d="M160.335 430.958L159.163 429.809L229.236 358.811L230.407 359.959L160.335 430.958Z" fill="#085343"/>
<path fill-rule="evenodd" clip-rule="evenodd" d="M159.543 430.188L158.371 429.006L228.477 358.008L229.649 359.19L159.543 430.188Z" fill="#085443"/>
<path fill-rule="evenodd" clip-rule="evenodd" d="M158.784 429.386L157.613 428.237L227.685 357.25L228.856 358.399L158.784 429.386Z" fill="#085444"/>
<path fill-rule="evenodd" clip-rule="evenodd" d="M157.992 428.627L156.832 427.445L226.893 356.446L228.065 357.629L157.992 428.627Z" fill="#085444"/>
<path fill-rule="evenodd" clip-rule="evenodd" d="M157.211 427.823L156.074 426.674L226.135 355.676L227.306 356.836L157.211 427.823Z" fill="#085444"/>
<path fill-rule="evenodd" clip-rule="evenodd" d="M156.453 427.054L155.281 425.872L225.343 354.885L226.514 356.067L156.453 427.054Z" fill="#085444"/>
<path fill-rule="evenodd" clip-rule="evenodd" d="M155.661 426.262L154.49 425.113L224.585 354.115L225.756 355.264L155.661 426.262Z" fill="#085444"/>
<path fill-rule="evenodd" clip-rule="evenodd" d="M154.902 425.493L153.731 424.311L223.793 353.323L224.964 354.506L154.902 425.493Z" fill="#075445"/>
<path fill-rule="evenodd" clip-rule="evenodd" d="M154.11 424.69L152.939 423.541L223.034 352.554L224.172 353.703L154.11 424.69Z" fill="#075445"/>
<path fill-rule="evenodd" clip-rule="evenodd" d="M153.319 423.931L152.181 422.748L222.242 351.75L223.413 352.932L153.319 423.931Z" fill="#075445"/>
<path fill-rule="evenodd" clip-rule="evenodd" d="M152.56 423.127L151.389 421.945L221.461 350.991L222.621 352.14L152.56 423.127Z" fill="#075545"/>
<path fill-rule="evenodd" clip-rule="evenodd" d="M151.768 422.359L150.597 421.188L220.703 350.189L221.863 351.372L151.768 422.359Z" fill="#075546"/>
<path fill-rule="evenodd" clip-rule="evenodd" d="M151.01 421.566L149.838 420.384L219.911 349.419L221.082 350.568L151.01 421.566Z" fill="#075546"/>
<path fill-rule="evenodd" clip-rule="evenodd" d="M150.217 420.796L149.046 419.614L219.152 348.627L220.29 349.809L150.217 420.796Z" fill="#075546"/>
<path fill-rule="evenodd" clip-rule="evenodd" d="M149.459 420.005L148.288 418.823L218.36 347.824L219.531 349.007L149.459 420.005Z" fill="#075546"/>
<path fill-rule="evenodd" clip-rule="evenodd" d="M148.667 419.234L147.496 418.052L217.569 347.054L218.74 348.236L148.667 419.234Z" fill="#075547"/>
<path fill-rule="evenodd" clip-rule="evenodd" d="M147.875 418.432L146.704 417.25L216.81 346.263L217.981 347.445L147.875 418.432Z" fill="#075547"/>
<path fill-rule="evenodd" clip-rule="evenodd" d="M147.117 417.674L145.946 416.491L216.018 345.493L217.189 346.675L147.117 417.674Z" fill="#075547"/>
<path fill-rule="evenodd" clip-rule="evenodd" d="M146.325 416.872L145.165 415.689L215.26 344.702L216.431 345.885L146.325 416.872Z" fill="#075547"/>
<path fill-rule="evenodd" clip-rule="evenodd" d="M145.566 416.101L144.406 414.919L214.467 343.932L215.639 345.114L145.566 416.101Z" fill="#075648"/>
<path fill-rule="evenodd" clip-rule="evenodd" d="M144.785 415.308L143.614 414.125L213.676 343.127L214.847 344.309L144.785 415.308Z" fill="#075648"/>
<path fill-rule="evenodd" clip-rule="evenodd" d="M143.993 414.541L142.856 413.358L212.917 342.371L214.088 343.553L143.993 414.541Z" fill="#075648"/>
<path fill-rule="evenodd" clip-rule="evenodd" d="M143.235 413.737L142.063 412.566L212.125 341.567L213.296 342.75L143.235 413.737Z" fill="#075648"/>
<path fill-rule="evenodd" clip-rule="evenodd" d="M142.443 412.979L141.271 411.796L211.366 340.798L212.538 341.98L142.443 412.979Z" fill="#075648"/>
<path fill-rule="evenodd" clip-rule="evenodd" d="M141.684 412.175L140.513 410.993L210.574 340.006L211.745 341.188L141.684 412.175Z" fill="#075649"/>
<path fill-rule="evenodd" clip-rule="evenodd" d="M140.893 411.403L139.721 410.232L209.794 339.233L210.954 340.416L140.893 411.403Z" fill="#075649"/>
<path fill-rule="evenodd" clip-rule="evenodd" d="M140.101 410.613L138.963 409.431L209.035 338.433L210.195 339.615L140.101 410.613Z" fill="#075649"/>
<path fill-rule="evenodd" clip-rule="evenodd" d="M139.342 409.81L138.171 408.661L208.243 337.674L209.414 338.856L139.342 409.81Z" fill="#075749"/>
<path fill-rule="evenodd" clip-rule="evenodd" d="M138.55 409.051L137.379 407.869L207.485 336.87L208.656 338.053L138.55 409.051Z" fill="#07574A"/>
<path fill-rule="evenodd" clip-rule="evenodd" d="M137.791 408.248L136.62 407.099L206.693 336.101L207.864 337.283L137.791 408.248Z" fill="#07574A"/>
<path fill-rule="evenodd" clip-rule="evenodd" d="M137 407.478L135.828 406.296L205.934 335.309L207.072 336.491L137 407.478Z" fill="#07574A"/>
<path fill-rule="evenodd" clip-rule="evenodd" d="M136.241 406.684L135.07 405.535L205.142 334.537L206.314 335.72L136.241 406.684Z" fill="#07574A"/>
<path fill-rule="evenodd" clip-rule="evenodd" d="M135.449 405.916L134.278 404.733L204.351 333.746L205.522 334.928L135.449 405.916Z" fill="#07574B"/>
<path fill-rule="evenodd" clip-rule="evenodd" d="M134.657 405.113L133.497 403.964L203.592 332.977L204.763 334.126L134.657 405.113Z" fill="#07574B"/>
<path fill-rule="evenodd" clip-rule="evenodd" d="M133.899 404.354L132.739 403.172L202.8 332.174L203.971 333.356L133.899 404.354Z" fill="#07574B"/>
<path fill-rule="evenodd" clip-rule="evenodd" d="M133.118 403.551L131.946 402.402L202.041 331.415L203.179 332.564L133.118 403.551Z" fill="#07574B"/>
<path fill-rule="evenodd" clip-rule="evenodd" d="M132.359 402.782L131.188 401.61L201.249 330.612L202.42 331.795L132.359 402.782Z" fill="#07584B"/>
<path fill-rule="evenodd" clip-rule="evenodd" d="M131.567 401.989L130.396 400.84L200.457 329.842L201.629 330.991L131.567 401.989Z" fill="#07584C"/>
<path fill-rule="evenodd" clip-rule="evenodd" d="M130.775 401.22L129.637 400.037L199.699 329.05L200.87 330.232L130.775 401.22Z" fill="#07584C"/>
<path fill-rule="evenodd" clip-rule="evenodd" d="M130.017 400.429L128.846 399.28L198.907 328.281L200.078 329.43L130.017 400.429Z" fill="#07584C"/>
<path fill-rule="evenodd" clip-rule="evenodd" d="M129.225 399.657L128.054 398.475L198.149 327.477L199.32 328.659L129.225 399.657Z" fill="#07584C"/>
<path fill-rule="evenodd" clip-rule="evenodd" d="M128.466 398.857L127.295 397.674L197.367 326.721L198.527 327.87L128.466 398.857Z" fill="#07584D"/>
<path fill-rule="evenodd" clip-rule="evenodd" d="M127.674 398.098L126.503 396.915L196.576 325.917L197.747 327.099L127.674 398.098Z" fill="#07584D"/>
<path fill-rule="evenodd" clip-rule="evenodd" d="M126.882 397.295L125.745 396.112L195.817 325.147L196.988 326.296L126.882 397.295Z" fill="#07584D"/>
<path fill-rule="evenodd" clip-rule="evenodd" d="M126.124 396.524L124.953 395.342L195.025 324.354L196.196 325.537L126.124 396.524Z" fill="#07584D"/>
<path fill-rule="evenodd" clip-rule="evenodd" d="M125.332 395.732L124.161 394.55L194.267 323.585L195.438 324.734L125.332 395.732Z" fill="#07594E"/>
<path fill-rule="evenodd" clip-rule="evenodd" d="M124.574 394.963L123.402 393.781L193.475 322.794L194.646 323.965L124.574 394.963Z" fill="#06594E"/>
<path fill-rule="evenodd" clip-rule="evenodd" d="M123.782 394.159L122.61 392.976L192.716 321.989L193.854 323.172L123.782 394.159Z" fill="#06594E"/>
<path fill-rule="evenodd" clip-rule="evenodd" d="M123.023 393.401L121.852 392.219L191.924 321.221L193.095 322.403L123.023 393.401Z" fill="#06594E"/>
<path fill-rule="evenodd" clip-rule="evenodd" d="M122.231 392.598L121.071 391.416L191.132 320.429L192.303 321.611L122.231 392.598Z" fill="#06594F"/>
<path fill-rule="evenodd" clip-rule="evenodd" d="M121.45 391.828L120.279 390.646L190.374 319.658L191.545 320.841L121.45 391.828Z" fill="#06594F"/>
<path fill-rule="evenodd" clip-rule="evenodd" d="M120.692 391.037L119.521 389.855L189.582 318.856L190.753 320.039L120.692 391.037Z" fill="#06594F"/>
<path fill-rule="evenodd" clip-rule="evenodd" d="M119.899 390.267L118.728 389.085L188.823 318.098L189.961 319.28L119.899 390.267Z" fill="#06594F"/>
<path fill-rule="evenodd" clip-rule="evenodd" d="M119.141 389.475L117.97 388.292L188.031 317.294L189.203 318.476L119.141 389.475Z" fill="#06594F"/>
<path fill-rule="evenodd" clip-rule="evenodd" d="M118.349 388.705L117.178 387.523L187.25 316.524L188.411 317.707L118.349 388.705Z" fill="#065A50"/>
<path fill-rule="evenodd" clip-rule="evenodd" d="M117.557 387.903L116.419 386.721L186.481 315.733L187.652 316.916L117.557 387.903Z" fill="#065A50"/>
<path fill-rule="evenodd" clip-rule="evenodd" d="M116.799 387.143L115.628 385.96L185.7 314.962L186.86 316.144L116.799 387.143Z" fill="#065A50"/>
<path fill-rule="evenodd" clip-rule="evenodd" d="M116.006 386.34L114.835 385.158L184.941 314.171L186.101 315.342L116.006 386.34Z" fill="#065A50"/>
<path fill-rule="evenodd" clip-rule="evenodd" d="M115.248 385.537L114.077 384.388L184.149 313.401L185.321 314.584L115.248 385.537Z" fill="#065A51"/>
<path fill-rule="evenodd" clip-rule="evenodd" d="M114.456 384.781L113.285 383.598L183.358 312.6L184.529 313.782L114.456 384.781Z" fill="#065A51"/>
<path fill-rule="evenodd" clip-rule="evenodd" d="M113.664 383.976L112.526 382.827L182.599 311.84L183.77 313.011L113.664 383.976Z" fill="#065A51"/>
<path fill-rule="evenodd" clip-rule="evenodd" d="M112.906 383.207L111.735 382.024L181.807 311.037L182.979 312.22L112.906 383.207Z" fill="#065A51"/>
<path fill-rule="evenodd" clip-rule="evenodd" d="M112.114 382.414L110.954 381.265L181.048 310.267L182.22 311.449L112.114 382.414Z" fill="#065A52"/>
<path fill-rule="evenodd" clip-rule="evenodd" d="M111.356 381.644L110.184 380.462L180.257 309.475L181.428 310.657L111.356 381.644Z" fill="#065B52"/>
<path fill-rule="evenodd" clip-rule="evenodd" d="M110.563 380.852L109.403 379.691L179.498 308.704L180.636 309.853L110.563 380.852Z" fill="#065B52"/>
<path fill-rule="evenodd" clip-rule="evenodd" d="M109.805 380.082L108.645 378.9L178.706 307.901L179.878 309.084L109.805 380.082Z" fill="#065B52"/>
<path fill-rule="evenodd" clip-rule="evenodd" d="M109.024 379.28L107.853 378.131L177.914 307.144L179.085 308.292L109.024 379.28Z" fill="#065B53"/>
<path fill-rule="evenodd" clip-rule="evenodd" d="M108.232 378.521L107.061 377.339L177.156 306.341L178.327 307.523L108.232 378.521Z" fill="#065B53"/>
<path fill-rule="evenodd" clip-rule="evenodd" d="M107.474 377.717L106.302 376.568L176.364 305.57L177.535 306.719L107.474 377.717Z" fill="#065B53"/>
<path fill-rule="evenodd" clip-rule="evenodd" d="M106.681 376.949L105.51 375.766L175.605 304.779L176.743 305.961L106.681 376.949Z" fill="#065B53"/>
<path fill-rule="evenodd" clip-rule="evenodd" d="M105.923 376.155L104.752 375.006L174.814 304.008L175.985 305.157L105.923 376.155Z" fill="#065B53"/>
<path fill-rule="evenodd" clip-rule="evenodd" d="M105.131 375.388L103.96 374.206L174.032 303.219L175.203 304.39L105.131 375.388Z" fill="#065B54"/>
<path fill-rule="evenodd" clip-rule="evenodd" d="M104.339 374.584L103.201 373.435L173.274 302.448L174.434 303.597L104.339 374.584Z" fill="#065C54"/>
<path fill-rule="evenodd" clip-rule="evenodd" d="M103.581 373.826L102.409 372.644L172.482 301.646L173.653 302.828L103.581 373.826Z" fill="#065C54"/>
<path fill-rule="evenodd" clip-rule="evenodd" d="M102.789 373.022L101.617 371.84L171.723 300.875L172.895 302.035L102.789 373.022Z" fill="#065C54"/>
<path fill-rule="evenodd" clip-rule="evenodd" d="M102.031 372.253L100.859 371.07L170.932 300.083L172.103 301.265L102.031 372.253Z" fill="#065C55"/>
<path fill-rule="evenodd" clip-rule="evenodd" d="M101.238 371.46L100.067 370.277L170.139 299.312L171.311 300.461L101.238 371.46Z" fill="#065C55"/>
<path fill-rule="evenodd" clip-rule="evenodd" d="M100.446 370.691L99.3086 369.509L169.381 298.521L170.552 299.704L100.446 370.691Z" fill="#065C55"/>
<path fill-rule="evenodd" clip-rule="evenodd" d="M99.6878 369.898L98.5166 368.716L168.589 297.718L169.76 298.9L99.6878 369.898Z" fill="#065C55"/>
<path fill-rule="evenodd" clip-rule="evenodd" d="M98.9071 369.13L97.7358 367.947L167.831 296.949L169.002 298.131L98.9071 369.13Z" fill="#065C56"/>
<path fill-rule="evenodd" clip-rule="evenodd" d="M98.1371 368.325L96.9771 367.143L167.038 296.155L168.21 297.338L98.1371 368.325Z" fill="#065C56"/>
<path fill-rule="evenodd" clip-rule="evenodd" d="M97.356 367.568L96.1848 366.386L166.28 295.388L167.417 296.57L97.356 367.568Z" fill="#065D56"/>
<path fill-rule="evenodd" clip-rule="evenodd" d="M96.598 366.766L95.4268 365.583L165.488 294.585L166.659 295.767L96.598 366.766Z" fill="#065D56"/>
<path fill-rule="evenodd" clip-rule="evenodd" d="M95.806 365.995L94.6348 364.812L164.696 293.825L165.867 295.008L95.806 365.995Z" fill="#065D57"/>
<path fill-rule="evenodd" clip-rule="evenodd" d="M95.014 365.202L93.8428 364.02L163.938 293.021L165.109 294.204L95.014 365.202Z" fill="#065D57"/>
<path fill-rule="evenodd" clip-rule="evenodd" d="M94.2555 364.433L93.0842 363.25L163.157 292.252L164.317 293.434L94.2555 364.433Z" fill="#055D57"/>
<path fill-rule="evenodd" clip-rule="evenodd" d="M93.4637 363.629L92.2925 362.447L162.387 291.46L163.536 292.642L93.4637 363.629Z" fill="#055D57"/>
<path fill-rule="evenodd" clip-rule="evenodd" d="M92.7052 362.872L91.5339 361.69L161.606 290.691L162.766 291.874L92.7052 362.872Z" fill="#055D57"/>
<path fill-rule="evenodd" clip-rule="evenodd" d="M91.9129 362.068L90.7417 360.885L160.814 289.898L161.985 291.081L91.9129 362.068Z" fill="#055D58"/>
<path fill-rule="evenodd" clip-rule="evenodd" d="M91.1212 361.298L89.9834 360.116L160.056 289.129L161.227 290.311L91.1212 361.298Z" fill="#055D58"/>
<path fill-rule="evenodd" clip-rule="evenodd" d="M90.3626 360.507L89.1914 359.324L159.264 288.326L160.435 289.508L90.3626 360.507Z" fill="#055E58"/>
<path fill-rule="evenodd" clip-rule="evenodd" d="M89.5704 359.705L88.3992 358.556L158.505 287.568L159.676 288.751L89.5704 359.705Z" fill="#055E58"/>
<path fill-rule="evenodd" clip-rule="evenodd" d="M88.8123 358.944L87.6411 357.762L157.714 286.764L158.885 287.946L88.8123 358.944Z" fill="#055E59"/>
<path fill-rule="evenodd" clip-rule="evenodd" d="M88.0202 358.142L86.8601 356.993L156.921 285.995L158.093 287.178L88.0202 358.142Z" fill="#055E59"/>
<path fill-rule="evenodd" clip-rule="evenodd" d="M87.2397 357.371L86.0908 356.188L156.163 285.201L157.335 286.383L87.2397 357.371Z" fill="#055E59"/>
<path fill-rule="evenodd" clip-rule="evenodd" d="M86.4699 356.58L85.3098 355.431L155.371 284.433L156.542 285.582L86.4699 356.58Z" fill="#055E59"/>
<path fill-rule="evenodd" clip-rule="evenodd" d="M85.6888 355.812L84.5176 354.629L154.612 283.631L155.784 284.813L85.6888 355.812Z" fill="#055E5A"/>
<path fill-rule="evenodd" clip-rule="evenodd" d="M84.9303 355.007L83.759 353.858L153.82 282.871L154.992 284.02L84.9303 355.007Z" fill="#055E5A"/>
<path fill-rule="evenodd" clip-rule="evenodd" d="M84.1383 354.249L82.967 353.067L153.062 282.068L154.2 283.251L84.1383 354.249Z" fill="#055E5A"/>
<path fill-rule="evenodd" clip-rule="evenodd" d="M83.38 353.447L82.2087 352.298L152.27 281.3L153.441 282.46L83.38 353.447Z" fill="#055F5A"/>
<path fill-rule="evenodd" clip-rule="evenodd" d="M82.5877 352.676L81.4165 351.494L151.489 280.507L152.649 281.689L82.5877 352.676Z" fill="#055F5B"/>
<path fill-rule="evenodd" clip-rule="evenodd" d="M81.796 351.885L80.6248 350.736L150.72 279.737L151.891 280.886L81.796 351.885Z" fill="#055F5B"/>
<path fill-rule="evenodd" clip-rule="evenodd" d="M81.0374 351.115L79.8662 349.933L149.939 278.945L151.11 280.128L81.0374 351.115Z" fill="#055F5B"/>
<path fill-rule="evenodd" clip-rule="evenodd" d="M80.2457 350.312L79.0745 349.163L149.18 278.176L150.318 279.325L80.2457 350.312Z" fill="#055F5B"/>
<path fill-rule="evenodd" clip-rule="evenodd" d="M79.4866 349.553L78.3154 348.37L148.388 277.372L149.559 278.555L79.4866 349.553Z" fill="#055F5B"/>
<path fill-rule="evenodd" clip-rule="evenodd" d="M78.6949 348.75L77.5237 347.568L147.596 276.614L148.767 277.763L78.6949 348.75Z" fill="#055F5C"/>
<path fill-rule="evenodd" clip-rule="evenodd" d="M77.9031 347.98L76.7319 346.809L146.838 275.811L148.009 276.993L77.9031 347.98Z" fill="#055F5C"/>
<path fill-rule="evenodd" clip-rule="evenodd" d="M77.1446 347.188L75.9734 346.006L146.046 275.041L147.217 276.19L77.1446 347.188Z" fill="#05605C"/>
<path fill-rule="evenodd" clip-rule="evenodd" d="M76.3525 346.418L75.1924 345.236L145.287 274.249L146.458 275.431L76.3525 346.418Z" fill="#05605C"/>
<path fill-rule="evenodd" clip-rule="evenodd" d="M75.5941 345.627L74.4229 344.444L144.495 273.479L145.667 274.628L75.5941 345.627Z" fill="#05605D"/>
<path fill-rule="evenodd" clip-rule="evenodd" d="M74.8133 344.857L73.6421 343.675L143.703 272.677L144.875 273.859L74.8133 344.857Z" fill="#05605D"/>
<path fill-rule="evenodd" clip-rule="evenodd" d="M74.0211 344.054L72.8833 342.871L142.945 271.884L144.116 273.066L74.0211 344.054Z" fill="#05605D"/>
<path fill-rule="evenodd" clip-rule="evenodd" d="M73.2628 343.295L72.0916 342.113L142.153 271.114L143.324 272.297L73.2628 343.295Z" fill="#05605D"/>
<path fill-rule="evenodd" clip-rule="evenodd" d="M72.471 342.491L71.2998 341.309L141.395 270.321L142.566 271.504L72.471 342.491Z" fill="#05605E"/>
<path fill-rule="evenodd" clip-rule="evenodd" d="M71.7122 341.721L70.541 340.539L140.602 269.552L141.774 270.734L71.7122 341.721Z" fill="#05605E"/>
<path fill-rule="evenodd" clip-rule="evenodd" d="M70.9202 340.93L69.749 339.747L139.844 268.749L140.982 269.931L70.9202 340.93Z" fill="#05605E"/>
<path fill-rule="evenodd" clip-rule="evenodd" d="M70.1285 340.16L68.9907 338.978L139.063 267.99L140.223 269.173L70.1285 340.16Z" fill="#05615E"/>
<path fill-rule="evenodd" clip-rule="evenodd" d="M69.3699 339.358L68.1987 338.187L138.271 267.188L139.442 268.371L69.3699 339.358Z" fill="#05615F"/>
<path fill-rule="evenodd" clip-rule="evenodd" d="M68.5777 338.599L67.4065 337.416L137.512 266.418L138.673 267.6L68.5777 338.599Z" fill="#05615F"/>
<path fill-rule="evenodd" clip-rule="evenodd" d="M67.8192 337.795L66.6479 336.613L136.72 265.626L137.892 266.808L67.8192 337.795Z" fill="#05615F"/>
<path fill-rule="evenodd" clip-rule="evenodd" d="M67.0274 337.026L65.8562 335.855L135.962 264.856L137.1 266.039L67.0274 337.026Z" fill="#05615F"/>
<path fill-rule="evenodd" clip-rule="evenodd" d="M66.2689 336.235L65.0977 335.053L135.17 264.055L136.341 265.237L66.2689 336.235Z" fill="#05615F"/>
<path fill-rule="evenodd" clip-rule="evenodd" d="M65.4769 335.432L64.3057 334.283L134.378 263.296L135.549 264.478L65.4769 335.432Z" fill="#056160"/>
<path fill-rule="evenodd" clip-rule="evenodd" d="M64.6847 334.673L63.5247 333.491L133.619 262.492L134.791 263.675L64.6847 334.673Z" fill="#056160"/>
<path fill-rule="evenodd" clip-rule="evenodd" d="M63.9262 333.87L62.7661 332.721L132.827 261.723L133.999 262.905L63.9262 333.87Z" fill="#046160"/>
<path fill-rule="evenodd" clip-rule="evenodd" d="M63.1456 333.1L61.9744 331.918L132.069 260.931L133.24 262.113L63.1456 333.1Z" fill="#046260"/>
<path fill-rule="evenodd" clip-rule="evenodd" d="M62.3761 332.309L61.2161 331.16L131.277 260.162L132.449 261.344L62.3761 332.309Z" fill="#046261"/>
<path fill-rule="evenodd" clip-rule="evenodd" d="M61.5953 331.54L60.4241 330.357L130.485 259.37L131.657 260.541L61.5953 331.54Z" fill="#046261"/>
<path fill-rule="evenodd" clip-rule="evenodd" d="M60.8033 330.736L59.6655 329.587L129.727 258.6L130.898 259.749L60.8033 330.736Z" fill="#046261"/>
<path fill-rule="evenodd" clip-rule="evenodd" d="M60.0448 329.978L58.8735 328.795L128.935 257.797L130.106 258.979L60.0448 329.978Z" fill="#046261"/>
<path fill-rule="evenodd" clip-rule="evenodd" d="M59.2528 329.174L58.0815 328.025L128.176 257.038L129.348 258.187L59.2528 329.174Z" fill="#046262"/>
<path fill-rule="evenodd" clip-rule="evenodd" d="M58.494 328.404L57.3228 327.233L127.395 256.234L128.555 257.417L58.494 328.404Z" fill="#046262"/>
<path fill-rule="evenodd" clip-rule="evenodd" d="M57.7025 327.612L56.5312 326.463L126.604 255.465L127.775 256.614L57.7025 327.612Z" fill="#046262"/>
<path fill-rule="evenodd" clip-rule="evenodd" d="M56.91 326.843L55.7722 325.661L125.845 254.674L127.016 255.856L56.91 326.843Z" fill="#046262"/>
<path fill-rule="evenodd" clip-rule="evenodd" d="M56.1517 326.05L54.9805 324.902L125.053 253.903L126.224 255.052L56.1517 326.05Z" fill="#046362"/>
<path fill-rule="evenodd" clip-rule="evenodd" d="M55.3597 325.281L54.1885 324.099L124.294 253.101L125.466 254.283L55.3597 325.281Z" fill="#046363"/>
<path fill-rule="evenodd" clip-rule="evenodd" d="M54.6019 324.478L53.4307 323.295L123.503 252.342L124.674 253.49L54.6019 324.478Z" fill="#046363"/>
<path fill-rule="evenodd" clip-rule="evenodd" d="M53.8094 323.719L52.6382 322.537L122.744 251.538L123.882 252.721L53.8094 323.719Z" fill="#046363"/>
<path fill-rule="evenodd" clip-rule="evenodd" d="M53.0506 322.916L51.8794 321.734L121.952 250.769L123.123 251.917L53.0506 322.916Z" fill="#046363"/>
<path fill-rule="evenodd" clip-rule="evenodd" d="M52.2587 322.146L51.0986 320.964L121.16 249.977L122.331 251.159L52.2587 322.146Z" fill="#046364"/>
<path fill-rule="evenodd" clip-rule="evenodd" d="M51.4779 321.353L50.3066 320.171L120.401 249.206L121.573 250.355L51.4779 321.353Z" fill="#046364"/>
<path fill-rule="evenodd" clip-rule="evenodd" d="M50.7196 320.585L49.5483 319.402L119.61 248.415L120.781 249.586L50.7196 320.585Z" fill="#046364"/>
<path fill-rule="evenodd" clip-rule="evenodd" d="M49.9273 319.781L48.7561 318.598L118.851 247.611L119.989 248.793L49.9273 319.781Z" fill="#046364"/>
<path fill-rule="evenodd" clip-rule="evenodd" d="M49.1688 319.022L47.9976 317.84L118.059 246.842L119.23 248.024L49.1688 319.022Z" fill="#046465"/>
<path fill-rule="evenodd" clip-rule="evenodd" d="M48.3773 318.22L47.2061 317.038L117.267 246.051L118.439 247.233L48.3773 318.22Z" fill="#046465"/>
<path fill-rule="evenodd" clip-rule="evenodd" d="M47.585 317.452L46.4473 316.269L116.509 245.282L117.68 246.465L47.585 317.452Z" fill="#046465"/>
<path fill-rule="evenodd" clip-rule="evenodd" d="M46.827 316.658L45.6558 315.476L115.728 244.478L116.888 245.66L46.827 316.658Z" fill="#046466"/>
<path fill-rule="evenodd" clip-rule="evenodd" d="M46.0345 315.889L44.8633 314.707L114.969 243.72L116.129 244.902L46.0345 315.889Z" fill="#046466"/>
<path fill-rule="evenodd" clip-rule="evenodd" d="M45.2762 315.097L44.105 313.914L114.177 242.916L115.349 244.098L45.2762 315.097Z" fill="#046467"/>
<path fill-rule="evenodd" clip-rule="evenodd" d="M44.4845 314.327L43.3132 313.145L113.386 242.146L114.557 243.329L44.4845 314.327Z" fill="#046567"/>
<path fill-rule="evenodd" clip-rule="evenodd" d="M43.6924 313.524L42.5547 312.342L112.627 241.354L113.798 242.537L43.6924 313.524Z" fill="#046567"/>
<path fill-rule="evenodd" clip-rule="evenodd" d="M42.9334 312.765L41.7622 311.582L111.835 240.584L113.006 241.766L42.9334 312.765Z" fill="#046568"/>
<path fill-rule="evenodd" clip-rule="evenodd" d="M42.1417 311.962L40.9705 310.78L111.076 239.793L112.248 240.964L42.1417 311.962Z" fill="#046568"/>
<path fill-rule="evenodd" clip-rule="evenodd" d="M41.3831 311.193L40.2119 310.011L110.284 239.023L111.456 240.206L41.3831 311.193Z" fill="#046568"/>
<path fill-rule="evenodd" clip-rule="evenodd" d="M40.5915 310.4L39.4314 309.218L109.526 238.22L110.664 239.402L40.5915 310.4Z" fill="#046669"/>
<path fill-rule="evenodd" clip-rule="evenodd" d="M39.8329 309.598L38.6729 308.449L108.734 237.462L109.905 238.633L39.8329 309.598Z" fill="#036669"/>
<path fill-rule="evenodd" clip-rule="evenodd" d="M39.0518 308.827L37.8806 307.644L107.942 236.657L109.113 237.84L39.0518 308.827Z" fill="#036669"/>
<path fill-rule="evenodd" clip-rule="evenodd" d="M38.2598 308.036L37.0886 306.887L107.183 235.889L108.355 237.071L38.2598 308.036Z" fill="#03666A"/>
<path fill-rule="evenodd" clip-rule="evenodd" d="M37.5015 307.266L36.3303 306.084L106.392 235.097L107.563 236.279L37.5015 307.266Z" fill="#03666A"/>
<path fill-rule="evenodd" clip-rule="evenodd" d="M36.7096 306.473L35.5383 305.313L105.633 234.326L106.771 235.475L36.7096 306.473Z" fill="#03666B"/>
<path fill-rule="evenodd" clip-rule="evenodd" d="M35.9512 305.704L34.78 304.522L104.841 233.523L106.013 234.706L35.9512 305.704Z" fill="#03676B"/>
<path fill-rule="evenodd" clip-rule="evenodd" d="M35.159 304.902L33.9878 303.753L104.06 232.766L105.22 233.915L35.159 304.902Z" fill="#03676B"/>
<path fill-rule="evenodd" clip-rule="evenodd" d="M34.367 304.142L33.2292 302.959L103.302 231.961L104.462 233.143L34.367 304.142Z" fill="#03676C"/>
<path fill-rule="evenodd" clip-rule="evenodd" d="M33.6087 303.34L32.4375 302.191L102.51 231.192L103.681 232.341L33.6087 303.34Z" fill="#03676C"/>
<path fill-rule="evenodd" clip-rule="evenodd" d="M32.8167 302.57L31.6455 301.388L101.751 230.4L102.923 231.583L32.8167 302.57Z" fill="#03676C"/>
<path fill-rule="evenodd" clip-rule="evenodd" d="M32.0579 301.778L30.8867 300.629L100.959 229.631L102.13 230.78L32.0579 301.778Z" fill="#03676D"/>
<path fill-rule="evenodd" clip-rule="evenodd" d="M31.266 301.009L30.0947 299.826L100.167 228.828L101.338 230.011L31.266 301.009Z" fill="#03686D"/>
<path fill-rule="evenodd" clip-rule="evenodd" d="M30.4742 300.206L29.3364 299.057L99.4089 228.07L100.58 229.219L30.4742 300.206Z" fill="#03686D"/>
<path fill-rule="evenodd" clip-rule="evenodd" d="M29.7157 299.447L28.5444 298.264L98.6169 227.266L99.7881 228.448L29.7157 299.447Z" fill="#03686E"/>
<path fill-rule="evenodd" clip-rule="evenodd" d="M28.9237 298.644L27.7637 297.461L97.8585 226.496L99.0297 227.656L28.9237 298.644Z" fill="#03686E"/>
<path fill-rule="evenodd" clip-rule="evenodd" d="M28.1649 297.875L27.0049 296.692L97.0662 225.705L98.2374 226.888L28.1649 297.875Z" fill="#03686F"/>
<path fill-rule="evenodd" clip-rule="evenodd" d="M27.3844 297.082L26.2131 295.899L96.3079 224.935L97.4457 226.084L27.3844 297.082Z" fill="#03696F"/>
<path fill-rule="evenodd" clip-rule="evenodd" d="M26.6261 296.312L25.4548 295.13L95.5162 224.143L96.6874 225.325L26.6261 296.312Z" fill="#03696F"/>
<path fill-rule="evenodd" clip-rule="evenodd" d="M25.8336 295.52L24.6624 294.338L94.7237 223.34L95.8949 224.522L25.8336 295.52Z" fill="#036970"/>
<path fill-rule="evenodd" clip-rule="evenodd" d="M25.0421 294.75L23.8708 293.568L93.9657 222.569L95.1369 223.752L25.0421 294.75Z" fill="#036970"/>
<path fill-rule="evenodd" clip-rule="evenodd" d="M24.2833 293.947L23.1121 292.765L93.1734 221.777L94.3446 222.96L24.2833 293.947Z" fill="#036970"/>
<path fill-rule="evenodd" clip-rule="evenodd" d="M23.4913 293.189L22.3201 292.007L92.4149 221.009L93.5526 222.191L23.4913 293.189Z" fill="#036971"/>
<path fill-rule="evenodd" clip-rule="evenodd" d="M22.733 292.386L21.5618 291.203L91.6343 220.205L92.7943 221.388L22.733 292.386Z" fill="#036A71"/>
<path fill-rule="evenodd" clip-rule="evenodd" d="M21.941 291.617L20.7698 290.434L90.8423 219.447L92.0135 220.629L21.941 291.617Z" fill="#036A72"/>
<path fill-rule="evenodd" clip-rule="evenodd" d="M21.149 290.825L20.0112 289.643L90.0837 218.645L91.2549 219.827L21.149 290.825Z" fill="#036A72"/>
<path fill-rule="evenodd" clip-rule="evenodd" d="M20.3905 290.055L19.2192 288.872L89.2917 217.874L90.4629 219.056L20.3905 290.055Z" fill="#026A72"/>
<path fill-rule="evenodd" clip-rule="evenodd" d="M19.5985 289.252L18.4272 288.069L88.5332 217.082L89.7044 218.264L19.5985 289.252Z" fill="#026A73"/>
<path fill-rule="evenodd" clip-rule="evenodd" d="M18.8402 288.492L17.6689 287.31L87.7414 216.312L88.9127 217.494L18.8402 288.492Z" fill="#026A73"/>
<path fill-rule="evenodd" clip-rule="evenodd" d="M18.0482 287.691L16.877 286.509L86.9494 215.521L88.1207 216.704L18.0482 287.691Z" fill="#026B73"/>
<path fill-rule="evenodd" clip-rule="evenodd" d="M17.2559 286.921L16.1182 285.738L86.1906 214.751L87.3619 215.933L17.2559 286.921Z" fill="#026B74"/>
<path fill-rule="evenodd" clip-rule="evenodd" d="M16.4975 286.129L15.3374 284.947L85.3987 213.948L86.57 215.131L16.4975 286.129Z" fill="#026B74"/>
<path fill-rule="evenodd" clip-rule="evenodd" d="M15.7164 285.324L14.5452 284.176L84.64 213.188L85.8112 214.371L15.7164 285.324Z" fill="#026B74"/>
<path fill-rule="evenodd" clip-rule="evenodd" d="M14.9583 284.556L13.7871 283.385L83.8484 212.387L85.0197 213.569L14.9583 284.556Z" fill="#026B75"/>
<path fill-rule="evenodd" clip-rule="evenodd" d="M14.1666 283.764L12.9954 282.615L83.0902 211.617L84.2279 212.799L14.1666 283.764Z" fill="#026B75"/>
<path fill-rule="evenodd" clip-rule="evenodd" d="M13.4075 282.994L12.2363 281.812L82.2977 210.824L83.4689 212.007L13.4075 282.994Z" fill="#026C76"/>
<path fill-rule="evenodd" clip-rule="evenodd" d="M12.616 282.202L11.4448 281.053L81.5062 210.055L82.6774 211.237L12.616 282.202Z" fill="#026C76"/>
<path fill-rule="evenodd" clip-rule="evenodd" d="M11.8238 281.434L10.6526 280.251L80.7474 209.253L81.9186 210.435L11.8238 281.434Z" fill="#026C76"/>
<path fill-rule="evenodd" clip-rule="evenodd" d="M11.0655 280.628L9.89429 279.479L79.9668 208.492L81.1268 209.641L11.0655 280.628Z" fill="#026C77"/>
<path fill-rule="evenodd" clip-rule="evenodd" d="M10.2735 279.871L9.10229 278.689L79.2082 207.69L80.346 208.873L10.2735 279.871Z" fill="#026C77"/>
<path fill-rule="evenodd" clip-rule="evenodd" d="M9.51497 279.066L8.34375 277.917L78.4162 206.919L79.5875 208.079L9.51497 279.066Z" fill="#026D77"/>
<path fill-rule="evenodd" clip-rule="evenodd" d="M8.72274 278.297L7.55151 277.115L77.624 206.128L78.7952 207.31L8.72274 278.297Z" fill="#026D78"/>
<path fill-rule="evenodd" clip-rule="evenodd" d="M7.93072 277.507L6.79297 276.358L76.8654 205.359L78.0367 206.508L7.93072 277.507Z" fill="#026D78"/>
<path fill-rule="evenodd" clip-rule="evenodd" d="M7.1722 276.737L6.00098 275.554L76.0735 204.567L77.2447 205.75L7.1722 276.737Z" fill="#026D78"/>
<path fill-rule="evenodd" clip-rule="evenodd" d="M6.38045 275.932L5.20923 274.783L75.3152 203.796L76.4864 204.945L6.38045 275.932Z" fill="#026D79"/>
<path fill-rule="evenodd" clip-rule="evenodd" d="M5.62166 275.175L4.45044 273.992L74.5229 202.994L75.6941 204.176L5.62166 275.175Z" fill="#026D79"/>
<path fill-rule="evenodd" clip-rule="evenodd" d="M4.82975 274.373L3.66968 273.19L73.731 202.236L74.9022 203.385L4.82975 274.373Z" fill="#026E7A"/>
<path fill-rule="evenodd" clip-rule="evenodd" d="M4.04914 273.602L2.91138 272.431L72.9727 201.433L74.1439 202.615L4.04914 273.602Z" fill="#026E7A"/>
<path fill-rule="evenodd" clip-rule="evenodd" d="M3.29061 272.81L2.11938 271.628L72.1807 200.663L73.3519 201.812L3.29061 272.81Z" fill="#026E7A"/>
<path fill-rule="evenodd" clip-rule="evenodd" d="M2.49862 272.042L1.32739 270.859L71.4222 199.872L72.5934 201.054L2.49862 272.042Z" fill="#026E7B"/>
<path fill-rule="evenodd" clip-rule="evenodd" d="M1.74007 271.248L0.568848 270.066L70.6302 199.101L71.8014 200.25L1.74007 271.248Z" fill="#026E7B"/>
<path fill-rule="evenodd" clip-rule="evenodd" d="M0.948322 270.48L-0.2229 269.297L69.8719 198.299L71.0096 199.481L0.948322 270.48Z" fill="#016E7B"/>
<path fill-rule="evenodd" clip-rule="evenodd" d="M0.156313 269.676L-0.981445 268.494L69.0799 197.507L70.2511 198.689L0.156313 269.676Z" fill="#016F7C"/>
<path fill-rule="evenodd" clip-rule="evenodd" d="M-0.602217 268.917L-1.77344 267.735L68.299 196.736L69.4591 197.919L-0.602217 268.917Z" fill="#016F7C"/>
<path fill-rule="evenodd" clip-rule="evenodd" d="M-1.39421 268.115L-2.56543 266.932L67.5405 195.945L68.7006 197.117L-1.39421 268.115Z" fill="#016F7D"/>
<path fill-rule="evenodd" clip-rule="evenodd" d="M-2.153 267.345L-3.32422 266.163L66.7483 195.176L67.9195 196.358L-2.153 267.345Z" fill="#016F7D"/>
<path fill-rule="evenodd" clip-rule="evenodd" d="M-2.9445 266.552L-4.11572 265.37L65.9902 194.371L67.128 195.554L-2.9445 266.552Z" fill="#016F7D"/>
<path fill-rule="evenodd" clip-rule="evenodd" d="M-3.70329 265.783L-4.87451 264.601L65.198 193.613L66.3692 194.796L-3.70329 265.783Z" fill="#01707E"/>
<path fill-rule="evenodd" clip-rule="evenodd" d="M-4.4948 264.98L-5.66602 263.809L64.4065 192.811L65.5777 193.993L-4.4948 264.98Z" fill="#01707E"/>
<path fill-rule="evenodd" clip-rule="evenodd" d="M-5.28727 264.221L-6.4585 263.038L63.6474 192.04L64.8187 193.222L-5.28727 264.221Z" fill="#01707E"/>
<path fill-rule="evenodd" clip-rule="evenodd" d="M-6.04557 263.418L-7.2168 262.236L62.8557 191.249L64.0269 192.431L-6.04557 263.418Z" fill="#01707F"/>
<path fill-rule="evenodd" clip-rule="evenodd" d="M-6.83725 262.648L-7.99731 261.477L62.0975 190.479L63.2687 191.661L-6.83725 262.648Z" fill="#01707F"/>
<path fill-rule="evenodd" clip-rule="evenodd" d="M-7.59579 261.855L-8.75586 260.673L61.3055 189.675L62.4767 190.857L-7.59579 261.855Z" fill="#01707F"/>
<path fill-rule="evenodd" clip-rule="evenodd" d="M-8.37712 261.054L-9.54834 259.905L60.513 188.918L61.6842 190.1L-8.37712 261.054Z" fill="#017180"/>
<path fill-rule="evenodd" clip-rule="evenodd" d="M-9.16888 260.294L-10.3066 259.111L59.7547 188.113L60.9259 189.296L-9.16888 260.294Z" fill="#017180"/>
<path fill-rule="evenodd" clip-rule="evenodd" d="M-9.92741 259.491L-11.0986 258.342L58.9627 187.344L60.1339 188.526L-9.92741 259.491Z" fill="#017181"/>
<path fill-rule="evenodd" clip-rule="evenodd" d="M-10.7196 258.722L-11.8909 257.54L58.2039 186.553L59.3752 187.735L-10.7196 258.722Z" fill="#017181"/>
<path fill-rule="evenodd" clip-rule="evenodd" d="M-11.4777 257.93L-12.6489 256.781L57.4124 185.782L58.5836 186.965L-11.4777 257.93Z" fill="#017181"/>
<path fill-rule="evenodd" clip-rule="evenodd" d="M-12.2702 257.161L-13.4414 255.979L56.6534 184.991L57.7911 186.162L-12.2702 257.161Z" fill="#017182"/>
<path fill-rule="evenodd" clip-rule="evenodd" d="M-13.062 256.358L-14.1997 255.209L55.8728 184.222L57.0328 185.371L-13.062 256.358Z" fill="#017282"/>
<path fill-rule="evenodd" clip-rule="evenodd" d="M-13.82 255.6L-14.9912 254.417L55.0813 183.419L56.2525 184.601L-13.82 255.6Z" fill="#017282"/>
<path fill-rule="evenodd" clip-rule="evenodd" d="M-14.6122 254.795L-15.7834 253.646L54.3225 182.659L55.4937 183.808L-14.6122 254.795Z" fill="#017283"/>
<path fill-rule="evenodd" clip-rule="evenodd" d="M-15.3703 254.027L-16.5415 252.845L53.531 181.857L54.7022 183.04L-15.3703 254.027Z" fill="#017283"/>
<path fill-rule="evenodd" clip-rule="evenodd" d="M-16.1628 253.234L-17.334 252.085L52.772 181.087L53.9097 182.236L-16.1628 253.234Z" fill="#017283"/>
<path fill-rule="evenodd" clip-rule="evenodd" d="M-16.9216 252.464L-18.0928 251.282L51.9797 180.295L53.1509 181.477L-16.9216 252.464Z" fill="#017384"/>
<path fill-rule="evenodd" clip-rule="evenodd" d="M-17.7135 251.673L-18.8848 250.512L51.1877 179.525L52.3589 180.674L-17.7135 251.673Z" fill="#017384"/>
<path fill-rule="evenodd" clip-rule="evenodd" d="M-18.505 250.904L-19.665 249.722L50.4298 178.724L51.601 179.906L-18.505 250.904Z" fill="#007385"/>
<path fill-rule="evenodd" clip-rule="evenodd" d="M-19.2638 250.099L-20.4238 248.95L49.6375 177.963L50.8087 179.112L-19.2638 250.099Z" fill="#007385"/>
<path fill-rule="evenodd" clip-rule="evenodd" d="M-20.0446 249.342L-21.2158 248.16L48.879 177.161L50.0502 178.344L-20.0446 249.342Z" fill="#007385"/>
<path fill-rule="evenodd" clip-rule="evenodd" d="M-20.8029 248.538L-21.9741 247.355L48.0872 176.391L49.2584 177.54L-20.8029 248.538Z" fill="#007386"/>
<path fill-rule="evenodd" clip-rule="evenodd" d="M-21.5949 247.768L-22.7661 246.586L47.2952 175.599L48.4664 176.781L-21.5949 247.768Z" fill="#007486"/>
<path fill-rule="evenodd" clip-rule="evenodd" d="M-22.3869 246.975L-23.5247 245.793L46.5367 174.828L47.7079 175.977L-22.3869 246.975Z" fill="#007486"/>
<path fill-rule="evenodd" clip-rule="evenodd" d="M-23.1457 246.208L-24.3169 245.025L45.7444 174.038L46.9157 175.209L-23.1457 246.208Z" fill="#007487"/>
<path fill-rule="evenodd" clip-rule="evenodd" d="M-23.9372 245.403L-25.1084 244.221L44.9864 173.233L46.1576 174.416L-23.9372 245.403Z" fill="#007487"/>
<path fill-rule="evenodd" clip-rule="evenodd" d="M-24.696 244.645L-25.8672 243.463L44.2053 172.465L45.3654 173.647L-24.696 244.645Z" fill="#007488"/>
<path fill-rule="evenodd" clip-rule="evenodd" d="M-25.4878 243.842L-25.2982 244.031L44.7966 173.044L44.5847 172.854L-25.4878 243.842Z" fill="#007488"/>
</g>
<mask id="mask2_2062_714" style="mask-type:luminance" maskUnits="userSpaceOnUse" x="316" y="212" width="284" height="255">
<path d="M316.375 451.805V419.491C316.375 415.72 317.858 412.084 320.513 409.429L332.872 396.97L399.899 329.463L401.517 327.834L405.789 323.551L413.664 315.631C416.319 312.943 419.922 311.448 423.659 311.448H443.424V291.649C443.424 287.846 444.908 284.243 447.563 281.554L512.482 216.211C515.136 213.523 518.739 212.028 522.476 212.028H585.867C593.675 212.028 600 218.42 600 226.273V257.862C600 261.632 598.516 265.269 595.862 267.924L532.114 332.117C529.459 334.806 525.889 336.3 522.119 336.3H509.158V355.107C509.158 358.877 507.674 362.514 505.019 365.202L476.43 393.98L475.226 395.163L473.452 396.981L465.867 404.611L408.979 461.9C406.324 464.555 402.722 466.049 398.951 466.049H330.53C322.688 466.049 316.364 459.691 316.364 451.805H316.375Z" fill="white"/>
</mask>
<g mask="url(#mask2_2062_714)">
<path fill-rule="evenodd" clip-rule="evenodd" d="M293.553 436.581L360.68 368.962L430.742 439.96L363.648 507.568L293.553 436.581Z" fill="#085240"/>
<path fill-rule="evenodd" clip-rule="evenodd" d="M360.302 369.385L361.462 368.202L431.534 439.189L430.363 440.372L360.302 369.385Z" fill="#085240"/>
<path fill-rule="evenodd" clip-rule="evenodd" d="M361.06 368.582L362.22 367.399L432.292 438.398L431.155 439.58L361.06 368.582Z" fill="#085240"/>
<path fill-rule="evenodd" clip-rule="evenodd" d="M361.84 367.811L363.012 366.629L433.084 437.627L431.913 438.81L361.84 367.811Z" fill="#085241"/>
<path fill-rule="evenodd" clip-rule="evenodd" d="M362.6 367.022L363.771 365.84L433.877 436.827L432.706 438.009L362.6 367.022Z" fill="#085241"/>
<path fill-rule="evenodd" clip-rule="evenodd" d="M363.392 366.251L364.563 365.068L434.635 436.067L433.464 437.249L363.392 366.251Z" fill="#085341"/>
<path fill-rule="evenodd" clip-rule="evenodd" d="M364.183 365.459L365.355 364.276L435.427 435.264L434.256 436.446L364.183 365.459Z" fill="#085341"/>
<path fill-rule="evenodd" clip-rule="evenodd" d="M364.941 364.688L366.113 363.506L436.185 434.493L435.047 435.675L364.941 364.688Z" fill="#085342"/>
<path fill-rule="evenodd" clip-rule="evenodd" d="M365.734 363.887L366.905 362.704L436.977 433.702L435.806 434.885L365.734 363.887Z" fill="#085342"/>
<path fill-rule="evenodd" clip-rule="evenodd" d="M366.492 363.127L367.663 361.945L437.758 432.932L436.598 434.081L366.492 363.127Z" fill="#085342"/>
<path fill-rule="evenodd" clip-rule="evenodd" d="M367.284 362.324L368.455 361.142L438.517 432.14L437.357 433.311L367.284 362.324Z" fill="#085342"/>
<path fill-rule="evenodd" clip-rule="evenodd" d="M368.076 361.555L369.214 360.372L439.309 431.371L438.137 432.519L368.076 361.555Z" fill="#085343"/>
<path fill-rule="evenodd" clip-rule="evenodd" d="M368.834 360.763L370.006 359.581L440.067 430.568L438.896 431.751L368.834 360.763Z" fill="#085343"/>
<path fill-rule="evenodd" clip-rule="evenodd" d="M369.626 359.959L370.798 358.811L440.859 429.809L439.688 430.958L369.626 359.959Z" fill="#085343"/>
<path fill-rule="evenodd" clip-rule="evenodd" d="M370.385 359.19L371.557 358.008L441.652 429.006L440.48 430.188L370.385 359.19Z" fill="#085443"/>
<path fill-rule="evenodd" clip-rule="evenodd" d="M371.177 358.399L372.348 357.25L442.41 428.237L441.239 429.386L371.177 358.399Z" fill="#085444"/>
<path fill-rule="evenodd" clip-rule="evenodd" d="M371.969 357.629L373.107 356.446L443.202 427.445L442.03 428.627L371.969 357.629Z" fill="#085444"/>
<path fill-rule="evenodd" clip-rule="evenodd" d="M372.728 356.836L373.888 355.676L443.96 426.674L442.789 427.823L372.728 356.836Z" fill="#085444"/>
<path fill-rule="evenodd" clip-rule="evenodd" d="M373.508 356.067L374.68 354.885L444.752 425.872L443.581 427.054L373.508 356.067Z" fill="#085444"/>
<path fill-rule="evenodd" clip-rule="evenodd" d="M374.267 355.264L375.438 354.115L445.51 425.113L444.373 426.262L374.267 355.264Z" fill="#085444"/>
<path fill-rule="evenodd" clip-rule="evenodd" d="M375.059 354.506L376.23 353.323L446.303 424.311L445.131 425.493L375.059 354.506Z" fill="#075445"/>
<path fill-rule="evenodd" clip-rule="evenodd" d="M375.817 353.703L376.989 352.554L447.095 423.541L445.923 424.69L375.817 353.703Z" fill="#075445"/>
<path fill-rule="evenodd" clip-rule="evenodd" d="M376.609 352.932L377.78 351.75L447.853 422.748L446.682 423.931L376.609 352.932Z" fill="#075445"/>
<path fill-rule="evenodd" clip-rule="evenodd" d="M377.401 352.14L378.573 350.991L448.645 421.945L447.474 423.127L377.401 352.14Z" fill="#075545"/>
<path fill-rule="evenodd" clip-rule="evenodd" d="M378.16 351.372L379.331 350.189L449.404 421.188L448.266 422.359L378.16 351.372Z" fill="#075546"/>
<path fill-rule="evenodd" clip-rule="evenodd" d="M378.952 350.568L380.123 349.419L450.184 420.384L449.024 421.566L378.952 350.568Z" fill="#075546"/>
<path fill-rule="evenodd" clip-rule="evenodd" d="M379.71 349.809L380.881 348.627L450.976 419.614L449.805 420.796L379.71 349.809Z" fill="#075546"/>
<path fill-rule="evenodd" clip-rule="evenodd" d="M380.502 349.007L381.673 347.824L451.734 418.823L450.563 420.005L380.502 349.007Z" fill="#075546"/>
<path fill-rule="evenodd" clip-rule="evenodd" d="M381.294 348.236L382.432 347.054L452.527 418.052L451.355 419.234L381.294 348.236Z" fill="#075547"/>
<path fill-rule="evenodd" clip-rule="evenodd" d="M382.053 347.445L383.224 346.263L453.285 417.25L452.114 418.432L382.053 347.445Z" fill="#075547"/>
<path fill-rule="evenodd" clip-rule="evenodd" d="M382.845 346.675L384.016 345.493L454.077 416.491L452.906 417.674L382.845 346.675Z" fill="#075547"/>
<path fill-rule="evenodd" clip-rule="evenodd" d="M383.603 345.885L384.775 344.702L454.869 415.689L453.698 416.872L383.603 345.885Z" fill="#075547"/>
<path fill-rule="evenodd" clip-rule="evenodd" d="M384.395 345.114L385.555 343.932L455.628 414.919L454.456 416.101L384.395 345.114Z" fill="#075648"/>
<path fill-rule="evenodd" clip-rule="evenodd" d="M385.176 344.309L386.314 343.127L456.419 414.125L455.248 415.308L385.176 344.309Z" fill="#075648"/>
<path fill-rule="evenodd" clip-rule="evenodd" d="M385.935 343.553L387.106 342.371L457.178 413.358L456.007 414.541L385.935 343.553Z" fill="#075648"/>
<path fill-rule="evenodd" clip-rule="evenodd" d="M386.727 342.75L387.898 341.567L457.97 412.566L456.799 413.737L386.727 342.75Z" fill="#075648"/>
<path fill-rule="evenodd" clip-rule="evenodd" d="M387.485 341.98L388.656 340.798L458.728 411.796L457.591 412.979L387.485 341.98Z" fill="#075648"/>
<path fill-rule="evenodd" clip-rule="evenodd" d="M388.277 341.188L389.448 340.006L459.52 410.993L458.349 412.175L388.277 341.188Z" fill="#075649"/>
<path fill-rule="evenodd" clip-rule="evenodd" d="M389.036 340.416L390.207 339.233L460.313 410.232L459.142 411.403L389.036 340.416Z" fill="#075649"/>
<path fill-rule="evenodd" clip-rule="evenodd" d="M389.827 339.615L390.998 338.433L461.071 409.431L459.9 410.613L389.827 339.615Z" fill="#075649"/>
<path fill-rule="evenodd" clip-rule="evenodd" d="M390.619 338.856L391.791 337.674L461.852 408.661L460.692 409.81L390.619 338.856Z" fill="#075749"/>
<path fill-rule="evenodd" clip-rule="evenodd" d="M391.378 338.053L392.549 336.87L462.611 407.869L461.473 409.051L391.378 338.053Z" fill="#07574A"/>
<path fill-rule="evenodd" clip-rule="evenodd" d="M392.17 337.283L393.341 336.101L463.403 407.099L462.231 408.248L392.17 337.283Z" fill="#07574A"/>
<path fill-rule="evenodd" clip-rule="evenodd" d="M392.928 336.491L394.1 335.309L464.194 406.296L463.023 407.478L392.928 336.491Z" fill="#07574A"/>
<path fill-rule="evenodd" clip-rule="evenodd" d="M393.72 335.72L394.891 334.537L464.953 405.535L463.782 406.684L393.72 335.72Z" fill="#07574A"/>
<path fill-rule="evenodd" clip-rule="evenodd" d="M394.512 334.928L395.65 333.746L465.745 404.733L464.574 405.916L394.512 334.928Z" fill="#07574B"/>
<path fill-rule="evenodd" clip-rule="evenodd" d="M395.271 334.126L396.442 332.977L466.503 403.964L465.332 405.113L395.271 334.126Z" fill="#07574B"/>
<path fill-rule="evenodd" clip-rule="evenodd" d="M396.063 333.356L397.223 332.174L467.295 403.172L466.124 404.354L396.063 333.356Z" fill="#07574B"/>
<path fill-rule="evenodd" clip-rule="evenodd" d="M396.821 332.564L397.981 331.415L468.087 402.402L466.916 403.551L396.821 332.564Z" fill="#07574B"/>
<path fill-rule="evenodd" clip-rule="evenodd" d="M397.602 331.795L398.774 330.612L468.846 401.61L467.675 402.782L397.602 331.795Z" fill="#07584B"/>
<path fill-rule="evenodd" clip-rule="evenodd" d="M398.394 330.991L399.532 329.842L469.638 400.84L468.467 401.989L398.394 330.991Z" fill="#07584C"/>
<path fill-rule="evenodd" clip-rule="evenodd" d="M399.153 330.232L400.324 329.05L470.396 400.037L469.225 401.22L399.153 330.232Z" fill="#07584C"/>
<path fill-rule="evenodd" clip-rule="evenodd" d="M399.944 329.43L401.116 328.281L471.188 399.28L470.017 400.429L399.944 329.43Z" fill="#07584C"/>
<path fill-rule="evenodd" clip-rule="evenodd" d="M400.703 328.659L401.874 327.477L471.947 398.475L470.809 399.657L400.703 328.659Z" fill="#07584C"/>
<path fill-rule="evenodd" clip-rule="evenodd" d="M401.495 327.87L402.666 326.721L472.739 397.674L471.567 398.857L401.495 327.87Z" fill="#07584D"/>
<path fill-rule="evenodd" clip-rule="evenodd" d="M402.253 327.099L403.425 325.917L473.519 396.915L472.359 398.098L402.253 327.099Z" fill="#07584D"/>
<path fill-rule="evenodd" clip-rule="evenodd" d="M403.045 326.296L404.217 325.147L474.278 396.112L473.118 397.295L403.045 326.296Z" fill="#07584D"/>
<path fill-rule="evenodd" clip-rule="evenodd" d="M403.838 325.537L405.009 324.354L475.07 395.342L473.899 396.524L403.838 325.537Z" fill="#07584D"/>
<path fill-rule="evenodd" clip-rule="evenodd" d="M404.596 324.734L405.767 323.585L475.829 394.55L474.691 395.732L404.596 324.734Z" fill="#07594E"/>
<path fill-rule="evenodd" clip-rule="evenodd" d="M405.388 323.965L406.559 322.794L476.62 393.781L475.449 394.963L405.388 323.965Z" fill="#06594E"/>
<path fill-rule="evenodd" clip-rule="evenodd" d="M406.146 323.172L407.318 321.989L477.413 392.976L476.241 394.159L406.146 323.172Z" fill="#06594E"/>
<path fill-rule="evenodd" clip-rule="evenodd" d="M406.938 322.403L408.109 321.221L478.171 392.219L477 393.401L406.938 322.403Z" fill="#06594E"/>
<path fill-rule="evenodd" clip-rule="evenodd" d="M407.719 321.611L408.868 320.429L478.963 391.416L477.792 392.598L407.719 321.611Z" fill="#06594F"/>
<path fill-rule="evenodd" clip-rule="evenodd" d="M408.489 320.841L409.649 319.658L479.721 390.646L478.55 391.828L408.489 320.841Z" fill="#06594F"/>
<path fill-rule="evenodd" clip-rule="evenodd" d="M409.269 320.039L410.44 318.856L480.513 389.855L479.342 391.037L409.269 320.039Z" fill="#06594F"/>
<path fill-rule="evenodd" clip-rule="evenodd" d="M410.028 319.28L411.199 318.098L481.305 389.085L480.134 390.267L410.028 319.28Z" fill="#06594F"/>
<path fill-rule="evenodd" clip-rule="evenodd" d="M410.82 318.476L411.992 317.294L482.064 388.292L480.893 389.475L410.82 318.476Z" fill="#06594F"/>
<path fill-rule="evenodd" clip-rule="evenodd" d="M411.612 317.707L412.75 316.524L482.856 387.523L481.685 388.705L411.612 317.707Z" fill="#065A50"/>
<path fill-rule="evenodd" clip-rule="evenodd" d="M412.371 316.916L413.542 315.733L483.614 386.721L482.443 387.903L412.371 316.916Z" fill="#065A50"/>
<path fill-rule="evenodd" clip-rule="evenodd" d="M413.163 316.144L414.334 314.962L484.406 385.96L483.235 387.143L413.163 316.144Z" fill="#065A50"/>
<path fill-rule="evenodd" clip-rule="evenodd" d="M413.921 315.342L415.092 314.171L485.187 385.158L484.027 386.34L413.921 315.342Z" fill="#065A50"/>
<path fill-rule="evenodd" clip-rule="evenodd" d="M414.713 314.584L415.884 313.401L485.945 384.388L484.785 385.537L414.713 314.584Z" fill="#065A51"/>
<path fill-rule="evenodd" clip-rule="evenodd" d="M415.472 313.782L416.643 312.6L486.738 383.598L485.566 384.781L415.472 313.782Z" fill="#065A51"/>
<path fill-rule="evenodd" clip-rule="evenodd" d="M416.263 313.011L417.434 311.84L487.496 382.827L486.325 383.976L416.263 313.011Z" fill="#065A51"/>
<path fill-rule="evenodd" clip-rule="evenodd" d="M417.055 312.22L418.226 311.037L488.288 382.024L487.117 383.207L417.055 312.22Z" fill="#065A51"/>
<path fill-rule="evenodd" clip-rule="evenodd" d="M417.814 311.449L418.985 310.267L489.046 381.265L487.909 382.414L417.814 311.449Z" fill="#065A52"/>
<path fill-rule="evenodd" clip-rule="evenodd" d="M418.606 310.657L419.778 309.475L489.839 380.462L488.668 381.644L418.606 310.657Z" fill="#065B52"/>
<path fill-rule="evenodd" clip-rule="evenodd" d="M419.364 309.853L420.535 308.704L490.63 379.691L489.459 380.852L419.364 309.853Z" fill="#065B52"/>
<path fill-rule="evenodd" clip-rule="evenodd" d="M420.156 309.084L421.316 307.901L491.389 378.9L490.218 380.082L420.156 309.084Z" fill="#065B52"/>
<path fill-rule="evenodd" clip-rule="evenodd" d="M420.937 308.292L422.075 307.144L492.181 378.131L491.01 379.28L420.937 308.292Z" fill="#065B53"/>
<path fill-rule="evenodd" clip-rule="evenodd" d="M421.696 307.523L422.867 306.341L492.939 377.339L491.802 378.521L421.696 307.523Z" fill="#065B53"/>
<path fill-rule="evenodd" clip-rule="evenodd" d="M422.488 306.719L423.659 305.57L493.731 376.568L492.56 377.717L422.488 306.719Z" fill="#065B53"/>
<path fill-rule="evenodd" clip-rule="evenodd" d="M423.246 305.961L424.417 304.779L494.523 375.766L493.352 376.949L423.246 305.961Z" fill="#065B53"/>
<path fill-rule="evenodd" clip-rule="evenodd" d="M424.038 305.157L425.209 304.008L495.282 375.006L494.11 376.155L424.038 305.157Z" fill="#065B53"/>
<path fill-rule="evenodd" clip-rule="evenodd" d="M424.83 304.39L425.967 303.219L496.073 374.206L494.902 375.388L424.83 304.39Z" fill="#065B54"/>
<path fill-rule="evenodd" clip-rule="evenodd" d="M425.589 303.597L426.76 302.448L496.833 373.435L495.661 374.584L425.589 303.597Z" fill="#065C54"/>
<path fill-rule="evenodd" clip-rule="evenodd" d="M426.381 302.828L427.552 301.646L497.613 372.644L496.453 373.826L426.381 302.828Z" fill="#065C54"/>
<path fill-rule="evenodd" clip-rule="evenodd" d="M427.139 302.035L428.31 300.875L498.405 371.84L497.234 373.022L427.139 302.035Z" fill="#065C54"/>
<path fill-rule="evenodd" clip-rule="evenodd" d="M427.931 301.265L429.102 300.083L499.164 371.07L497.993 372.253L427.931 301.265Z" fill="#065C55"/>
<path fill-rule="evenodd" clip-rule="evenodd" d="M428.69 300.461L429.861 299.312L499.956 370.277L498.785 371.46L428.69 300.461Z" fill="#065C55"/>
<path fill-rule="evenodd" clip-rule="evenodd" d="M429.481 299.704L430.653 298.521L500.714 369.509L499.543 370.691L429.481 299.704Z" fill="#065C55"/>
<path fill-rule="evenodd" clip-rule="evenodd" d="M430.273 298.9L431.434 297.718L501.506 368.716L500.335 369.898L430.273 298.9Z" fill="#065C55"/>
<path fill-rule="evenodd" clip-rule="evenodd" d="M431.032 298.131L432.203 296.949L502.265 367.947L501.127 369.13L431.032 298.131Z" fill="#065C56"/>
<path fill-rule="evenodd" clip-rule="evenodd" d="M431.824 297.338L432.984 296.155L503.057 367.143L501.886 368.325L431.824 297.338Z" fill="#065C56"/>
<path fill-rule="evenodd" clip-rule="evenodd" d="M432.582 296.57L433.742 295.388L503.848 366.386L502.677 367.568L432.582 296.57Z" fill="#065D56"/>
<path fill-rule="evenodd" clip-rule="evenodd" d="M433.363 295.767L434.534 294.585L504.607 365.583L503.436 366.766L433.363 295.767Z" fill="#065D56"/>
<path fill-rule="evenodd" clip-rule="evenodd" d="M434.155 295.008L435.326 293.825L505.399 364.812L504.228 365.995L434.155 295.008Z" fill="#065D57"/>
<path fill-rule="evenodd" clip-rule="evenodd" d="M434.914 294.204L436.085 293.021L506.158 364.02L505.02 365.202L434.914 294.204Z" fill="#065D57"/>
<path fill-rule="evenodd" clip-rule="evenodd" d="M435.706 293.434L436.877 292.252L506.95 363.25L505.778 364.433L435.706 293.434Z" fill="#055D57"/>
<path fill-rule="evenodd" clip-rule="evenodd" d="M436.464 292.642L437.636 291.46L507.73 362.447L506.57 363.629L436.464 292.642Z" fill="#055D57"/>
<path fill-rule="evenodd" clip-rule="evenodd" d="M437.256 291.874L438.428 290.691L508.5 361.69L507.329 362.872L437.256 291.874Z" fill="#055D57"/>
<path fill-rule="evenodd" clip-rule="evenodd" d="M438.048 291.081L439.186 289.898L509.28 360.885L508.12 362.068L438.048 291.081Z" fill="#055D58"/>
<path fill-rule="evenodd" clip-rule="evenodd" d="M438.807 290.311L439.978 289.129L510.039 360.116L508.879 361.298L438.807 290.311Z" fill="#055D58"/>
<path fill-rule="evenodd" clip-rule="evenodd" d="M439.599 289.508L440.77 288.326L510.831 359.324L509.66 360.507L439.599 289.508Z" fill="#055E58"/>
<path fill-rule="evenodd" clip-rule="evenodd" d="M440.357 288.751L441.529 287.568L511.623 358.556L510.452 359.705L440.357 288.751Z" fill="#055E58"/>
<path fill-rule="evenodd" clip-rule="evenodd" d="M441.149 287.946L442.321 286.764L512.382 357.762L511.211 358.944L441.149 287.946Z" fill="#055E59"/>
<path fill-rule="evenodd" clip-rule="evenodd" d="M441.941 287.178L443.079 285.995L513.174 356.993L512.003 358.142L441.941 287.178Z" fill="#055E59"/>
<path fill-rule="evenodd" clip-rule="evenodd" d="M442.7 286.383L443.871 285.201L513.932 356.188L512.761 357.371L442.7 286.383Z" fill="#055E59"/>
<path fill-rule="evenodd" clip-rule="evenodd" d="M443.48 285.582L444.651 284.433L514.724 355.431L513.553 356.58L443.48 285.582Z" fill="#055E59"/>
<path fill-rule="evenodd" clip-rule="evenodd" d="M444.25 284.813L445.411 283.631L515.483 354.629L514.345 355.812L444.25 284.813Z" fill="#055E5A"/>
<path fill-rule="evenodd" clip-rule="evenodd" d="M445.031 284.02L446.202 282.871L516.274 353.858L515.103 355.007L445.031 284.02Z" fill="#055E5A"/>
<path fill-rule="evenodd" clip-rule="evenodd" d="M445.79 283.251L446.961 282.068L517.067 353.067L515.896 354.249L445.79 283.251Z" fill="#055E5A"/>
<path fill-rule="evenodd" clip-rule="evenodd" d="M446.581 282.46L447.753 281.3L517.825 352.298L516.654 353.447L446.581 282.46Z" fill="#055F5A"/>
<path fill-rule="evenodd" clip-rule="evenodd" d="M447.374 281.689L448.545 280.507L518.617 351.494L517.446 352.676L447.374 281.689Z" fill="#055F5B"/>
<path fill-rule="evenodd" clip-rule="evenodd" d="M448.132 280.886L449.303 279.737L519.376 350.736L518.238 351.885L448.132 280.886Z" fill="#055F5B"/>
<path fill-rule="evenodd" clip-rule="evenodd" d="M448.924 280.128L450.095 278.945L520.168 349.933L518.996 351.115L448.924 280.128Z" fill="#055F5B"/>
<path fill-rule="evenodd" clip-rule="evenodd" d="M449.682 279.325L450.853 278.176L520.948 349.163L519.777 350.312L449.682 279.325Z" fill="#055F5B"/>
<path fill-rule="evenodd" clip-rule="evenodd" d="M450.474 278.555L451.645 277.372L521.707 348.37L520.547 349.553L450.474 278.555Z" fill="#055F5B"/>
<path fill-rule="evenodd" clip-rule="evenodd" d="M451.266 277.763L452.404 276.614L522.499 347.568L521.328 348.75L451.266 277.763Z" fill="#055F5C"/>
<path fill-rule="evenodd" clip-rule="evenodd" d="M452.025 276.993L453.196 275.811L523.257 346.809L522.086 347.98L452.025 276.993Z" fill="#055F5C"/>
<path fill-rule="evenodd" clip-rule="evenodd" d="M452.817 276.19L453.988 275.041L524.049 346.006L522.878 347.188L452.817 276.19Z" fill="#05605C"/>
<path fill-rule="evenodd" clip-rule="evenodd" d="M453.575 275.431L454.746 274.249L524.841 345.236L523.67 346.418L453.575 275.431Z" fill="#05605C"/>
<path fill-rule="evenodd" clip-rule="evenodd" d="M454.367 274.628L455.527 273.479L525.6 344.444L524.429 345.627L454.367 274.628Z" fill="#05605D"/>
<path fill-rule="evenodd" clip-rule="evenodd" d="M455.148 273.859L456.297 272.677L526.392 343.675L525.221 344.857L455.148 273.859Z" fill="#05605D"/>
<path fill-rule="evenodd" clip-rule="evenodd" d="M455.918 273.066L457.078 271.884L527.15 342.871L525.979 344.054L455.918 273.066Z" fill="#05605D"/>
<path fill-rule="evenodd" clip-rule="evenodd" d="M456.698 272.297L457.869 271.114L527.942 342.113L526.771 343.295L456.698 272.297Z" fill="#05605D"/>
<path fill-rule="evenodd" clip-rule="evenodd" d="M457.457 271.504L458.628 270.321L528.701 341.309L527.563 342.491L457.457 271.504Z" fill="#05605E"/>
<path fill-rule="evenodd" clip-rule="evenodd" d="M458.249 270.734L459.42 269.552L529.493 340.539L528.321 341.721L458.249 270.734Z" fill="#05605E"/>
<path fill-rule="evenodd" clip-rule="evenodd" d="M459.007 269.931L460.179 268.749L530.284 339.747L529.113 340.93L459.007 269.931Z" fill="#05605E"/>
<path fill-rule="evenodd" clip-rule="evenodd" d="M459.8 269.173L460.971 267.99L531.044 338.978L529.872 340.16L459.8 269.173Z" fill="#05615E"/>
<path fill-rule="evenodd" clip-rule="evenodd" d="M460.592 268.371L461.763 267.188L531.824 338.187L530.664 339.358L460.592 268.371Z" fill="#05615F"/>
<path fill-rule="evenodd" clip-rule="evenodd" d="M461.35 267.6L462.521 266.418L532.594 337.416L531.445 338.599L461.35 267.6Z" fill="#05615F"/>
<path fill-rule="evenodd" clip-rule="evenodd" d="M462.142 266.808L463.313 265.626L533.374 336.613L532.214 337.795L462.142 266.808Z" fill="#05615F"/>
<path fill-rule="evenodd" clip-rule="evenodd" d="M462.9 266.039L464.072 264.856L534.166 335.855L532.995 337.026L462.9 266.039Z" fill="#05615F"/>
<path fill-rule="evenodd" clip-rule="evenodd" d="M463.692 265.237L464.864 264.055L534.925 335.053L533.754 336.235L463.692 265.237Z" fill="#05615F"/>
<path fill-rule="evenodd" clip-rule="evenodd" d="M464.484 264.478L465.622 263.296L535.717 334.283L534.546 335.432L464.484 264.478Z" fill="#056160"/>
<path fill-rule="evenodd" clip-rule="evenodd" d="M465.243 263.675L466.414 262.492L536.475 333.491L535.304 334.673L465.243 263.675Z" fill="#056160"/>
<path fill-rule="evenodd" clip-rule="evenodd" d="M466.035 262.905L467.195 261.723L537.267 332.721L536.096 333.87L466.035 262.905Z" fill="#046160"/>
<path fill-rule="evenodd" clip-rule="evenodd" d="M466.793 262.113L467.964 260.931L538.059 331.918L536.888 333.1L466.793 262.113Z" fill="#046260"/>
<path fill-rule="evenodd" clip-rule="evenodd" d="M467.574 261.344L468.745 260.162L538.818 331.16L537.647 332.309L467.574 261.344Z" fill="#046261"/>
<path fill-rule="evenodd" clip-rule="evenodd" d="M468.366 260.541L469.504 259.37L539.61 330.357L538.438 331.54L468.366 260.541Z" fill="#046261"/>
<path fill-rule="evenodd" clip-rule="evenodd" d="M469.125 259.749L470.296 258.6L540.368 329.587L539.197 330.736L469.125 259.749Z" fill="#046261"/>
<path fill-rule="evenodd" clip-rule="evenodd" d="M469.917 258.979L471.088 257.797L541.16 328.795L539.989 329.978L469.917 258.979Z" fill="#046261"/>
<path fill-rule="evenodd" clip-rule="evenodd" d="M470.675 258.187L471.847 257.038L541.919 328.025L540.781 329.174L470.675 258.187Z" fill="#046262"/>
<path fill-rule="evenodd" clip-rule="evenodd" d="M471.467 257.417L472.638 256.234L542.711 327.233L541.539 328.404L471.467 257.417Z" fill="#046262"/>
<path fill-rule="evenodd" clip-rule="evenodd" d="M472.226 256.614L473.397 255.465L543.492 326.463L542.332 327.612L472.226 256.614Z" fill="#046262"/>
<path fill-rule="evenodd" clip-rule="evenodd" d="M473.017 255.856L474.189 254.674L544.261 325.661L543.09 326.843L473.017 255.856Z" fill="#046262"/>
<path fill-rule="evenodd" clip-rule="evenodd" d="M473.81 255.052L474.981 253.903L545.042 324.902L543.871 326.05L473.81 255.052Z" fill="#046362"/>
<path fill-rule="evenodd" clip-rule="evenodd" d="M474.568 254.283L475.739 253.101L545.8 324.099L544.663 325.281L474.568 254.283Z" fill="#046363"/>
<path fill-rule="evenodd" clip-rule="evenodd" d="M475.36 253.49L476.531 252.342L546.592 323.295L545.421 324.478L475.36 253.49Z" fill="#046363"/>
<path fill-rule="evenodd" clip-rule="evenodd" d="M476.119 252.721L477.29 251.538L547.385 322.537L546.213 323.719L476.119 252.721Z" fill="#046363"/>
<path fill-rule="evenodd" clip-rule="evenodd" d="M476.911 251.917L478.082 250.769L548.143 321.734L546.972 322.916L476.911 251.917Z" fill="#046363"/>
<path fill-rule="evenodd" clip-rule="evenodd" d="M477.703 251.159L478.84 249.977L548.935 320.964L547.764 322.146L477.703 251.159Z" fill="#046364"/>
<path fill-rule="evenodd" clip-rule="evenodd" d="M478.461 250.355L479.621 249.206L549.693 320.171L548.522 321.353L478.461 250.355Z" fill="#046364"/>
<path fill-rule="evenodd" clip-rule="evenodd" d="M479.242 249.586L480.413 248.415L550.485 319.402L549.314 320.585L479.242 249.586Z" fill="#046364"/>
<path fill-rule="evenodd" clip-rule="evenodd" d="M480.011 248.793L481.171 247.611L551.277 318.598L550.106 319.781L480.011 248.793Z" fill="#046364"/>
<path fill-rule="evenodd" clip-rule="evenodd" d="M480.792 248.024L481.963 246.842L552.036 317.84L550.864 319.022L480.792 248.024Z" fill="#046465"/>
<path fill-rule="evenodd" clip-rule="evenodd" d="M481.584 247.233L482.722 246.051L552.828 317.038L551.657 318.22L481.584 247.233Z" fill="#046465"/>
<path fill-rule="evenodd" clip-rule="evenodd" d="M482.342 246.465L483.514 245.282L553.586 316.269L552.415 317.452L482.342 246.465Z" fill="#046465"/>
<path fill-rule="evenodd" clip-rule="evenodd" d="M483.134 245.66L484.305 244.478L554.378 315.476L553.207 316.658L483.134 245.66Z" fill="#046466"/>
<path fill-rule="evenodd" clip-rule="evenodd" d="M483.894 244.902L485.065 243.72L555.137 314.707L553.999 315.889L483.894 244.902Z" fill="#046466"/>
<path fill-rule="evenodd" clip-rule="evenodd" d="M484.685 244.098L485.857 242.916L555.918 313.914L554.758 315.097L484.685 244.098Z" fill="#046467"/>
<path fill-rule="evenodd" clip-rule="evenodd" d="M485.444 243.329L486.615 242.146L556.71 313.145L555.539 314.327L485.444 243.329Z" fill="#046567"/>
<path fill-rule="evenodd" clip-rule="evenodd" d="M486.236 242.537L487.407 241.354L557.468 312.342L556.308 313.524L486.236 242.537Z" fill="#046567"/>
<path fill-rule="evenodd" clip-rule="evenodd" d="M487.027 241.766L488.199 240.584L558.26 311.582L557.089 312.765L487.027 241.766Z" fill="#046568"/>
<path fill-rule="evenodd" clip-rule="evenodd" d="M487.786 240.964L488.957 239.793L559.019 310.78L557.881 311.962L487.786 240.964Z" fill="#046568"/>
<path fill-rule="evenodd" clip-rule="evenodd" d="M488.578 240.206L489.749 239.023L559.811 310.011L558.639 311.193L488.578 240.206Z" fill="#046568"/>
<path fill-rule="evenodd" clip-rule="evenodd" d="M489.336 239.402L490.507 238.22L560.602 309.218L559.431 310.4L489.336 239.402Z" fill="#046669"/>
<path fill-rule="evenodd" clip-rule="evenodd" d="M490.128 238.633L491.288 237.462L561.361 308.449L560.19 309.598L490.128 238.633Z" fill="#036669"/>
<path fill-rule="evenodd" clip-rule="evenodd" d="M490.909 237.84L492.058 236.657L562.153 307.644L560.982 308.827L490.909 237.84Z" fill="#036669"/>
<path fill-rule="evenodd" clip-rule="evenodd" d="M491.668 237.071L492.839 235.889L562.912 306.887L561.74 308.036L491.668 237.071Z" fill="#03666A"/>
<path fill-rule="evenodd" clip-rule="evenodd" d="M492.46 236.279L493.631 235.097L563.704 306.084L562.532 307.266L492.46 236.279Z" fill="#03666A"/>
<path fill-rule="evenodd" clip-rule="evenodd" d="M493.218 235.475L494.39 234.326L564.495 305.313L563.324 306.473L493.218 235.475Z" fill="#03666B"/>
<path fill-rule="evenodd" clip-rule="evenodd" d="M494.01 234.706L495.181 233.523L565.254 304.522L564.083 305.704L494.01 234.706Z" fill="#03676B"/>
<path fill-rule="evenodd" clip-rule="evenodd" d="M494.802 233.915L495.94 232.766L566.046 303.753L564.875 304.902L494.802 233.915Z" fill="#03676B"/>
<path fill-rule="evenodd" clip-rule="evenodd" d="M495.561 233.143L496.732 231.961L566.805 302.959L565.634 304.142L495.561 233.143Z" fill="#03676C"/>
<path fill-rule="evenodd" clip-rule="evenodd" d="M496.353 232.341L497.524 231.192L567.585 302.191L566.425 303.34L496.353 232.341Z" fill="#03676C"/>
<path fill-rule="evenodd" clip-rule="evenodd" d="M497.111 231.583L498.282 230.4L568.377 301.388L567.206 302.57L497.111 231.583Z" fill="#03676C"/>
<path fill-rule="evenodd" clip-rule="evenodd" d="M497.903 230.78L499.075 229.631L569.136 300.629L567.965 301.778L497.903 230.78Z" fill="#03676D"/>
<path fill-rule="evenodd" clip-rule="evenodd" d="M498.662 230.011L499.833 228.828L569.928 299.826L568.756 301.009L498.662 230.011Z" fill="#03686D"/>
<path fill-rule="evenodd" clip-rule="evenodd" d="M499.454 229.219L500.625 228.07L570.686 299.057L569.515 300.206L499.454 229.219Z" fill="#03686D"/>
<path fill-rule="evenodd" clip-rule="evenodd" d="M500.246 228.448L501.417 227.266L571.478 298.264L570.307 299.447L500.246 228.448Z" fill="#03686E"/>
<path fill-rule="evenodd" clip-rule="evenodd" d="M501.004 227.656L502.176 226.496L572.237 297.461L571.099 298.644L501.004 227.656Z" fill="#03686E"/>
<path fill-rule="evenodd" clip-rule="evenodd" d="M501.796 226.888L502.956 225.705L573.028 296.692L571.857 297.875L501.796 226.888Z" fill="#03686F"/>
<path fill-rule="evenodd" clip-rule="evenodd" d="M502.555 226.084L503.715 224.935L573.821 295.899L572.649 297.082L502.555 226.084Z" fill="#03696F"/>
<path fill-rule="evenodd" clip-rule="evenodd" d="M503.335 225.325L504.507 224.143L574.579 295.13L573.408 296.312L503.335 225.325Z" fill="#03696F"/>
<path fill-rule="evenodd" clip-rule="evenodd" d="M504.128 224.522L505.265 223.34L575.371 294.338L574.2 295.52L504.128 224.522Z" fill="#036970"/>
<path fill-rule="evenodd" clip-rule="evenodd" d="M504.886 223.752L506.057 222.569L576.13 293.568L574.992 294.75L504.886 223.752Z" fill="#036970"/>
<path fill-rule="evenodd" clip-rule="evenodd" d="M505.678 222.96L506.849 221.777L576.921 292.765L575.75 293.947L505.678 222.96Z" fill="#036970"/>
<path fill-rule="evenodd" clip-rule="evenodd" d="M506.437 222.191L507.608 221.009L577.714 292.007L576.542 293.189L506.437 222.191Z" fill="#036971"/>
<path fill-rule="evenodd" clip-rule="evenodd" d="M507.229 221.388L508.4 220.205L578.472 291.203L577.301 292.386L507.229 221.388Z" fill="#036A71"/>
<path fill-rule="evenodd" clip-rule="evenodd" d="M508.02 220.629L509.158 219.447L579.253 290.434L578.093 291.617L508.02 220.629Z" fill="#036A72"/>
<path fill-rule="evenodd" clip-rule="evenodd" d="M508.779 219.827L509.95 218.645L580.011 289.643L578.851 290.825L508.779 219.827Z" fill="#036A72"/>
<path fill-rule="evenodd" clip-rule="evenodd" d="M509.571 219.056L510.742 217.874L580.803 288.872L579.632 290.055L509.571 219.056Z" fill="#026A72"/>
<path fill-rule="evenodd" clip-rule="evenodd" d="M510.329 218.264L511.501 217.082L581.595 288.069L580.424 289.252L510.329 218.264Z" fill="#026A73"/>
<path fill-rule="evenodd" clip-rule="evenodd" d="M511.121 217.494L512.292 216.312L582.354 287.31L581.182 288.492L511.121 217.494Z" fill="#026A73"/>
<path fill-rule="evenodd" clip-rule="evenodd" d="M511.88 216.704L513.051 215.521L583.146 286.509L581.974 287.691L511.88 216.704Z" fill="#026B73"/>
<path fill-rule="evenodd" clip-rule="evenodd" d="M512.672 215.933L513.843 214.751L583.904 285.738L582.733 286.921L512.672 215.933Z" fill="#026B74"/>
<path fill-rule="evenodd" clip-rule="evenodd" d="M513.464 215.131L514.624 213.948L584.696 284.947L583.525 286.129L513.464 215.131Z" fill="#026B74"/>
<path fill-rule="evenodd" clip-rule="evenodd" d="M514.222 214.371L515.382 213.188L585.455 284.176L584.317 285.324L514.222 214.371Z" fill="#026B74"/>
<path fill-rule="evenodd" clip-rule="evenodd" d="M515.003 213.569L516.174 212.387L586.247 283.385L585.075 284.556L515.003 213.569Z" fill="#026B75"/>
<path fill-rule="evenodd" clip-rule="evenodd" d="M515.761 212.799L516.933 211.617L587.039 282.615L585.867 283.764L515.761 212.799Z" fill="#026B75"/>
<path fill-rule="evenodd" clip-rule="evenodd" d="M516.553 212.007L517.724 210.824L587.797 281.812L586.626 282.994L516.553 212.007Z" fill="#026C76"/>
<path fill-rule="evenodd" clip-rule="evenodd" d="M517.346 211.237L518.517 210.055L588.589 281.053L587.418 282.202L517.346 211.237Z" fill="#026C76"/>
<path fill-rule="evenodd" clip-rule="evenodd" d="M518.104 210.435L519.275 209.253L589.348 280.251L588.21 281.434L518.104 210.435Z" fill="#026C76"/>
<path fill-rule="evenodd" clip-rule="evenodd" d="M518.896 209.641L520.067 208.492L590.14 279.479L588.968 280.628L518.896 209.641Z" fill="#026C77"/>
<path fill-rule="evenodd" clip-rule="evenodd" d="M519.654 208.873L520.825 207.69L590.92 278.689L589.76 279.871L519.654 208.873Z" fill="#026C77"/>
<path fill-rule="evenodd" clip-rule="evenodd" d="M520.446 208.079L521.618 206.919L591.679 277.917L590.519 279.066L520.446 208.079Z" fill="#026D77"/>
<path fill-rule="evenodd" clip-rule="evenodd" d="M521.238 207.31L522.376 206.128L592.471 277.115L591.3 278.297L521.238 207.31Z" fill="#026D78"/>
<path fill-rule="evenodd" clip-rule="evenodd" d="M521.997 206.508L523.168 205.359L593.229 276.358L592.058 277.507L521.997 206.508Z" fill="#026D78"/>
<path fill-rule="evenodd" clip-rule="evenodd" d="M522.789 205.75L523.96 204.567L594.021 275.554L592.85 276.737L522.789 205.75Z" fill="#026D78"/>
<path fill-rule="evenodd" clip-rule="evenodd" d="M523.547 204.945L524.718 203.796L594.813 274.783L593.642 275.932L523.547 204.945Z" fill="#026D79"/>
<path fill-rule="evenodd" clip-rule="evenodd" d="M524.339 204.176L525.511 202.994L595.572 273.992L594.401 275.175L524.339 204.176Z" fill="#026D79"/>
<path fill-rule="evenodd" clip-rule="evenodd" d="M525.131 203.385L526.269 202.236L596.364 273.19L595.193 274.373L525.131 203.385Z" fill="#026E7A"/>
<path fill-rule="evenodd" clip-rule="evenodd" d="M525.89 202.615L527.05 201.433L597.122 272.431L595.951 273.602L525.89 202.615Z" fill="#026E7A"/>
<path fill-rule="evenodd" clip-rule="evenodd" d="M526.67 201.812L527.842 200.663L597.914 271.628L596.743 272.81L526.67 201.812Z" fill="#026E7A"/>
<path fill-rule="evenodd" clip-rule="evenodd" d="M527.429 201.054L528.6 199.872L598.673 270.859L597.535 272.042L527.429 201.054Z" fill="#026E7B"/>
<path fill-rule="evenodd" clip-rule="evenodd" d="M528.221 200.25L529.392 199.101L599.465 270.066L598.294 271.248L528.221 200.25Z" fill="#026E7B"/>
<path fill-rule="evenodd" clip-rule="evenodd" d="M528.98 199.481L530.151 198.299L600.257 269.297L599.086 270.48L528.98 199.481Z" fill="#016E7B"/>
<path fill-rule="evenodd" clip-rule="evenodd" d="M529.771 198.689L530.943 197.507L601.015 268.494L599.844 269.676L529.771 198.689Z" fill="#016F7C"/>
<path fill-rule="evenodd" clip-rule="evenodd" d="M530.563 197.919L531.735 196.736L601.807 267.735L600.636 268.917L530.563 197.919Z" fill="#016F7C"/>
<path fill-rule="evenodd" clip-rule="evenodd" d="M531.322 197.117L532.493 195.945L602.566 266.932L601.428 268.115L531.322 197.117Z" fill="#016F7D"/>
<path fill-rule="evenodd" clip-rule="evenodd" d="M532.114 196.358L533.285 195.176L603.347 266.163L602.187 267.345L532.114 196.358Z" fill="#016F7D"/>
<path fill-rule="evenodd" clip-rule="evenodd" d="M532.873 195.554L534.044 194.371L604.139 265.37L602.967 266.552L532.873 195.554Z" fill="#016F7D"/>
<path fill-rule="evenodd" clip-rule="evenodd" d="M533.665 194.796L534.836 193.613L604.897 264.601L603.726 265.783L533.665 194.796Z" fill="#01707E"/>
<path fill-rule="evenodd" clip-rule="evenodd" d="M534.457 193.993L535.594 192.811L605.689 263.809L604.518 264.98L534.457 193.993Z" fill="#01707E"/>
<path fill-rule="evenodd" clip-rule="evenodd" d="M535.215 193.222L536.386 192.04L606.447 263.038L605.276 264.221L535.215 193.222Z" fill="#01707E"/>
<path fill-rule="evenodd" clip-rule="evenodd" d="M536.007 192.431L537.178 191.249L607.239 262.236L606.068 263.418L536.007 192.431Z" fill="#01707F"/>
<path fill-rule="evenodd" clip-rule="evenodd" d="M536.766 191.661L537.937 190.479L608.032 261.477L606.86 262.648L536.766 191.661Z" fill="#01707F"/>
<path fill-rule="evenodd" clip-rule="evenodd" d="M537.558 190.857L538.718 189.675L608.79 260.673L607.619 261.855L537.558 190.857Z" fill="#01707F"/>
<path fill-rule="evenodd" clip-rule="evenodd" d="M538.338 190.1L539.476 188.918L609.582 259.905L608.411 261.054L538.338 190.1Z" fill="#017180"/>
<path fill-rule="evenodd" clip-rule="evenodd" d="M539.097 189.296L540.268 188.113L610.34 259.111L609.169 260.294L539.097 189.296Z" fill="#017180"/>
<path fill-rule="evenodd" clip-rule="evenodd" d="M539.889 188.526L541.06 187.344L611.132 258.342L609.961 259.491L539.889 188.526Z" fill="#017181"/>
<path fill-rule="evenodd" clip-rule="evenodd" d="M540.647 187.735L541.818 186.553L611.891 257.54L610.753 258.722L540.647 187.735Z" fill="#017181"/>
<path fill-rule="evenodd" clip-rule="evenodd" d="M541.439 186.965L542.61 185.782L612.683 256.781L611.512 257.93L541.439 186.965Z" fill="#017181"/>
<path fill-rule="evenodd" clip-rule="evenodd" d="M542.197 186.162L543.369 184.991L613.474 255.979L612.303 257.161L542.197 186.162Z" fill="#017182"/>
<path fill-rule="evenodd" clip-rule="evenodd" d="M542.99 185.371L544.161 184.222L614.233 255.209L613.062 256.358L542.99 185.371Z" fill="#017282"/>
<path fill-rule="evenodd" clip-rule="evenodd" d="M543.782 184.601L544.953 183.419L615.014 254.417L613.854 255.6L543.782 184.601Z" fill="#017282"/>
<path fill-rule="evenodd" clip-rule="evenodd" d="M544.54 183.808L545.711 182.659L615.773 253.646L614.635 254.795L544.54 183.808Z" fill="#017283"/>
<path fill-rule="evenodd" clip-rule="evenodd" d="M545.332 183.04L546.503 181.857L616.565 252.845L615.393 254.027L545.332 183.04Z" fill="#017283"/>
<path fill-rule="evenodd" clip-rule="evenodd" d="M546.091 182.236L547.262 181.087L617.357 252.085L616.186 253.234L546.091 182.236Z" fill="#017283"/>
<path fill-rule="evenodd" clip-rule="evenodd" d="M546.883 181.477L548.054 180.295L618.115 251.282L616.944 252.464L546.883 181.477Z" fill="#017384"/>
<path fill-rule="evenodd" clip-rule="evenodd" d="M547.675 180.674L548.813 179.525L618.907 250.512L617.736 251.673L547.675 180.674Z" fill="#017384"/>
<path fill-rule="evenodd" clip-rule="evenodd" d="M548.433 179.906L549.604 178.724L619.666 249.722L618.494 250.904L548.433 179.906Z" fill="#007385"/>
<path fill-rule="evenodd" clip-rule="evenodd" d="M549.225 179.112L550.385 177.963L620.458 248.95L619.286 250.099L549.225 179.112Z" fill="#007385"/>
<path fill-rule="evenodd" clip-rule="evenodd" d="M549.983 178.344L551.143 177.161L621.249 248.16L620.078 249.342L549.983 178.344Z" fill="#007385"/>
<path fill-rule="evenodd" clip-rule="evenodd" d="M550.765 177.54L551.936 176.391L622.008 247.355L620.837 248.538L550.765 177.54Z" fill="#007386"/>
<path fill-rule="evenodd" clip-rule="evenodd" d="M551.556 176.781L552.694 175.599L622.8 246.586L621.629 247.768L551.556 176.781Z" fill="#007486"/>
<path fill-rule="evenodd" clip-rule="evenodd" d="M552.315 175.977L553.486 174.828L623.559 245.793L622.387 246.975L552.315 175.977Z" fill="#007486"/>
<path fill-rule="evenodd" clip-rule="evenodd" d="M553.107 175.209L554.278 174.038L624.351 245.025L623.179 246.208L553.107 175.209Z" fill="#007487"/>
<path fill-rule="evenodd" clip-rule="evenodd" d="M553.865 174.416L555.036 173.233L625.108 244.221L623.971 245.403L553.865 174.416Z" fill="#007487"/>
<path fill-rule="evenodd" clip-rule="evenodd" d="M554.657 173.647L555.828 172.465L625.901 243.463L624.73 244.645L554.657 173.647Z" fill="#007488"/>
<path fill-rule="evenodd" clip-rule="evenodd" d="M555.416 172.854L555.226 173.044L625.332 244.031L625.522 243.842L555.416 172.854Z" fill="#007488"/>
</g>
</svg>
