<svg width="66" height="75" viewBox="0 0 66 75" fill="none" xmlns="http://www.w3.org/2000/svg">
<g clip-path="url(#clip0_2797_5293)">
<path d="M33.3922 30.6505H29.3758L28.3496 32.2594C28.3496 32.2594 28.8796 32.3638 29.4097 32.4008C23.9661 41.5361 19.7627 39.052 19.0186 38.7726C25.203 45.4574 33.3888 30.6505 33.3888 30.6505H33.3922Z" fill="#FAF8F3"/>
<path d="M36.4404 29.7753C35.2035 30.4048 32.6958 33.3096 29.6205 37.6854C26.5453 42.0612 22.5186 41.3947 21.9512 41.3274C30.0793 43.6364 32.9404 39.1933 33.389 38.7356C33.8375 38.2812 35.9783 35.3763 38.3467 32.1181C40.7151 28.8632 47.2529 30.2971 47.2529 30.2971C42.0947 26.4464 37.6773 29.1425 36.4404 29.772V29.7753Z" fill="#FAF8F3"/>
<path d="M38.4932 33.6632C38.2825 33.9796 36.6209 36.9181 33.651 40.1393C29.7636 44.165 23.9326 42.9398 23.9326 42.9398C33.2636 48.0493 38.1398 41.1558 38.1398 41.1558C38.1398 41.1558 42.1325 35.7635 42.4145 35.1341C38.9859 36.4266 38.7039 33.3501 38.4932 33.6665V33.6632Z" fill="#FAF8F3"/>
<path d="M41.0926 34.7806C42.1247 34.7806 42.9615 33.9518 42.9615 32.9293C42.9615 31.9069 42.1247 31.0781 41.0926 31.0781C40.0604 31.0781 39.2236 31.9069 39.2236 32.9293C39.2236 33.9518 40.0604 34.7806 41.0926 34.7806Z" fill="#FAF8F3"/>
<path d="M61.7525 16.1668L32.9915 0L31.9449 0.599143L31.7886 0.757344C31.6561 0.784272 31.5236 0.831395 31.4046 0.902081L21.4756 6.4795L10.0752 12.8917L4.24414 16.1668C1.62766 17.6411 0 20.4416 0 23.4743V40.2638C0 40.3176 0.00339803 40.3681 0.0101941 40.4253C0.00339803 40.4792 0 40.5331 0 40.5869V50.769C0 53.8017 1.62766 56.5988 4.24414 58.0731L33.0119 74.25L33.6032 73.8999L34.4527 73.4287L34.7823 73.2368L34.7925 73.2167C37.1269 71.7794 60.9233 57.134 63.0607 55.7641C64.199 55.037 65.0655 53.8589 65.5685 52.3543C65.9456 51.2267 65.9966 50.2876 66 50.1833V50.1698V32.6836V23.4676C66 20.4315 64.3723 17.631 61.7525 16.16V16.1668ZM61.7593 53.7714C60.3525 54.6701 49.2613 61.5098 41.5953 66.2323L57.2399 50.3179C59.6117 47.9079 59.6117 43.9899 57.2399 41.5832L52.2448 36.5006C52.1462 31.6267 50.1991 27.0389 46.7501 23.5551C45.1259 21.9125 43.2468 20.593 41.1706 19.627C39.4851 18.8461 37.7012 18.3143 35.8594 18.045L39.373 14.467L39.5395 14.302L39.6041 14.2347C40.2973 13.5615 41.208 13.1912 42.173 13.1912C42.1764 13.1912 42.1832 13.1912 42.1866 13.1912C43.1652 13.198 44.0861 13.5918 44.7793 14.2987L63.6078 33.451V50.1059C63.5908 50.3449 63.3869 52.7347 61.7627 53.7714H61.7593ZM25.9542 6.69492L9.36158 23.5719C8.21305 24.7365 7.58101 26.2883 7.58101 27.9376C7.58101 28.2338 7.6014 28.53 7.64218 28.8228C7.82907 30.1524 8.42373 31.354 9.35818 32.3066L13.762 36.7867C13.762 36.8439 13.762 36.9012 13.762 36.9584C13.762 36.9988 13.762 37.0392 13.762 37.0762C13.762 37.1637 13.762 37.2512 13.7654 37.3421V37.3791C13.7654 37.4027 13.7654 37.4229 13.7654 37.4465C13.7688 37.5811 13.7756 37.709 13.779 37.8335C13.7858 37.985 13.796 38.1432 13.8062 38.3014C13.8062 38.3351 13.813 38.3687 13.813 38.399C13.813 38.4192 13.8164 38.436 13.8164 38.4562V38.4865C13.8266 38.5774 13.8334 38.6683 13.8436 38.7626C13.847 38.8029 13.8504 38.8433 13.8572 38.8837C13.8572 38.9039 13.8606 38.9241 13.864 38.9477V38.9948C13.8776 39.0722 13.8844 39.1496 13.8946 39.2237C13.9014 39.2674 13.9048 39.3112 13.9115 39.3583L13.9251 39.4694C13.9353 39.5401 13.9455 39.6108 13.9557 39.6815C13.9625 39.7286 13.9693 39.7757 13.9761 39.8228L13.9931 39.9238C14.0033 39.9945 14.0169 40.0652 14.0271 40.1359C14.0339 40.1864 14.0441 40.2335 14.0543 40.2806L14.0713 40.3748C14.0848 40.4455 14.0984 40.5162 14.112 40.5869C14.1222 40.6374 14.1324 40.6912 14.1426 40.7417L14.1596 40.8259C14.1732 40.8966 14.1902 40.9673 14.2038 41.0346C14.2174 41.0884 14.2276 41.1423 14.2412 41.1961L14.2548 41.2601C14.2717 41.3342 14.2887 41.4048 14.3057 41.4789C14.3193 41.5361 14.3329 41.59 14.3499 41.6472L14.3601 41.6876C14.3805 41.765 14.4009 41.839 14.4213 41.9165C14.4382 41.9771 14.4552 42.0343 14.4722 42.0915L14.479 42.1184C14.5028 42.1958 14.5232 42.2733 14.547 42.3507C14.564 42.4113 14.5844 42.4752 14.6047 42.5358L14.6115 42.5526C14.6353 42.6301 14.6591 42.7041 14.6829 42.7815C14.7033 42.8488 14.7271 42.9128 14.7509 42.9801C14.778 43.0542 14.8018 43.1316 14.829 43.2056C14.8528 43.273 14.8766 43.3369 14.9004 43.4009C14.9276 43.4749 14.9547 43.549 14.9853 43.6264C15.0091 43.6903 15.0363 43.7577 15.0601 43.8216C15.0907 43.8957 15.1179 43.9697 15.1484 44.0438C15.1756 44.1077 15.2028 44.1717 15.2266 44.2356C15.2572 44.3097 15.2878 44.3804 15.3217 44.4544C15.3489 44.5184 15.3761 44.579 15.4067 44.6429C15.4407 44.717 15.4712 44.7876 15.5052 44.8583C15.5358 44.9189 15.563 44.9829 15.5936 45.0435C15.6276 45.1141 15.6615 45.1882 15.6989 45.2589C15.7295 45.3195 15.7601 45.3801 15.7907 45.444C15.828 45.5147 15.862 45.5854 15.8994 45.6561C15.93 45.7166 15.9606 45.7772 15.9945 45.8345C16.0319 45.9051 16.0727 45.9758 16.1101 46.0465C16.1407 46.1071 16.1746 46.1643 16.2052 46.2215C16.246 46.2922 16.2868 46.3629 16.3276 46.4302L16.3377 46.4504C16.3683 46.5009 16.3989 46.5548 16.4295 46.6053C16.4703 46.676 16.5144 46.7433 16.5552 46.814L16.5722 46.8442C16.5994 46.8914 16.63 46.9385 16.6606 46.9856C16.7013 47.0529 16.7455 47.1203 16.7897 47.1842L16.8169 47.2246C16.8441 47.2684 16.8712 47.3121 16.9018 47.3525C16.946 47.4165 16.9868 47.4804 17.0309 47.5444L17.0683 47.6016C17.0955 47.6386 17.1193 47.679 17.1465 47.716C17.1907 47.7766 17.2348 47.8406 17.279 47.9012L17.3266 47.9685C17.3538 48.0055 17.3775 48.0392 17.4047 48.0762C17.4489 48.1368 17.4965 48.1974 17.5406 48.2613L17.5916 48.3286C17.6154 48.3623 17.6426 48.396 17.6664 48.4296C17.7139 48.4902 17.7615 48.5508 17.8091 48.6147L17.8669 48.6854C17.8906 48.7157 17.9144 48.746 17.9382 48.7763C17.9926 48.8436 18.0504 48.911 18.1047 48.9783L18.1183 48.9951C18.1183 48.9951 18.1421 49.022 18.1523 49.0389C18.1727 49.0658 18.1931 49.0894 18.2169 49.1163C18.2882 49.2004 18.3664 49.2879 18.4241 49.3586C18.4343 49.3687 18.4445 49.3822 18.4547 49.3923C18.4717 49.4125 18.4887 49.4293 18.5057 49.4495C18.5906 49.5471 18.6824 49.6447 18.7809 49.7524H18.7843C18.7843 49.7524 18.7945 49.7693 18.8013 49.776C19.0018 49.9914 19.2091 50.2035 19.4198 50.4122C19.4368 50.429 19.4503 50.4425 19.4673 50.4593C19.4775 50.4694 19.4877 50.4761 19.4945 50.4862C19.5693 50.5603 19.6508 50.6377 19.7358 50.7151C19.7596 50.7353 19.78 50.7555 19.8037 50.7791L19.8547 50.8262C19.9193 50.8868 19.9906 50.9507 20.0586 51.0147C20.0858 51.0382 20.113 51.0618 20.1401 51.0854L20.2013 51.1392C20.2625 51.1931 20.327 51.2503 20.3882 51.3042C20.4188 51.3311 20.446 51.3547 20.4765 51.3782L20.5377 51.4321C20.5989 51.4826 20.66 51.5364 20.7246 51.5869C20.7586 51.6138 20.7892 51.6408 20.8231 51.6643L20.8775 51.7081C20.9421 51.7586 21.0066 51.8124 21.0712 51.8629C21.1052 51.8898 21.1392 51.9168 21.1765 51.9437L21.2241 51.9807C21.2887 52.0312 21.3566 52.0817 21.4246 52.1322C21.462 52.1591 21.4994 52.1861 21.5367 52.2163L21.5741 52.2433C21.6421 52.2938 21.71 52.3442 21.7814 52.3914C21.8222 52.4217 21.8629 52.4486 21.9037 52.4755L21.9343 52.4991C22.0023 52.5462 22.0736 52.5967 22.145 52.6438C22.1892 52.6741 22.2367 52.7044 22.2809 52.7347L22.3047 52.7515C22.376 52.7987 22.444 52.8424 22.5154 52.8895C22.5663 52.9232 22.6173 52.9535 22.6683 52.9871L22.6785 52.9939C22.7498 53.0376 22.8212 53.0814 22.8892 53.1252C22.9435 53.1588 23.0013 53.1925 23.0557 53.2261C23.127 53.2699 23.1984 53.3103 23.2697 53.354C23.3275 53.3877 23.3819 53.418 23.4396 53.4517C23.511 53.492 23.5824 53.5324 23.6571 53.5728C23.7149 53.6031 23.7726 53.6368 23.8304 53.6671C23.9018 53.7075 23.9765 53.7445 24.0513 53.7815C24.109 53.8118 24.1668 53.8421 24.228 53.8724C24.3027 53.9094 24.3775 53.9465 24.4522 53.9835C24.51 54.0138 24.5712 54.0407 24.6289 54.071C24.7037 54.108 24.7785 54.1417 24.8532 54.1787C24.9144 54.2056 24.9721 54.2326 25.0333 54.2629C25.1081 54.2965 25.1862 54.3302 25.261 54.3638C25.3221 54.3908 25.3833 54.4177 25.4445 54.4413C25.5226 54.4749 25.5974 54.5052 25.6755 54.5389C25.7367 54.5624 25.7979 54.5894 25.859 54.6129C25.9372 54.6432 26.0153 54.6735 26.0935 54.7038H26.1071C26.1649 54.7307 26.2226 54.7543 26.2804 54.7745C26.3585 54.8048 26.4401 54.8317 26.5183 54.8586L26.5488 54.8687C26.5998 54.8889 26.6542 54.9058 26.7051 54.9226C26.7867 54.9495 26.8649 54.9764 26.9464 55.0034L26.9838 55.0168C27.0348 55.0337 27.0823 55.0505 27.1333 55.064C27.2148 55.0909 27.2964 55.1144 27.3814 55.1414L27.4255 55.1548C27.4731 55.1683 27.5207 55.1851 27.5682 55.1986C27.6464 55.2222 27.7246 55.2424 27.8027 55.2659L27.8707 55.2861C27.9148 55.2996 27.959 55.3097 28.0066 55.3231C28.0847 55.3433 28.1629 55.3635 28.2445 55.3837L28.3226 55.4039C28.3634 55.414 28.4076 55.4241 28.4483 55.4342C28.5265 55.4544 28.608 55.4712 28.6862 55.4881L28.7711 55.5083C28.8119 55.5184 28.8527 55.5285 28.8935 55.5352C28.975 55.552 29.0566 55.5689 29.1381 55.5857L29.2299 55.6025C29.2673 55.6092 29.3046 55.6193 29.342 55.6261C29.4338 55.6429 29.5255 55.6597 29.6139 55.6766H29.641C29.658 55.6833 29.6784 55.6867 29.6954 55.69C29.7294 55.6968 29.76 55.7035 29.794 55.7069C29.9061 55.7271 30.0148 55.7405 30.1338 55.7607C30.1474 55.7607 30.1643 55.7641 30.1779 55.7674C30.2017 55.7708 30.2289 55.7742 30.2527 55.7775C30.4226 55.8011 30.5925 55.8247 30.7624 55.8449L27.0348 59.6383C26.6848 59.9884 26.2804 60.261 25.8352 60.4461H25.8251C25.8251 60.4461 25.8047 60.4596 25.7911 60.463C25.7469 60.4798 25.7061 60.4966 25.6653 60.5101C25.645 60.5168 25.6246 60.5236 25.6076 60.5303L25.5736 60.5404C25.5736 60.5404 25.5498 60.5471 25.5362 60.5539C25.5226 60.5572 25.509 60.564 25.4954 60.5673C25.4479 60.5808 25.3969 60.5942 25.3561 60.6077C25.3459 60.6077 25.3357 60.6144 25.3255 60.6144C25.0979 60.6717 24.8634 60.7087 24.6255 60.7188C24.6188 60.7188 24.6154 60.7188 24.6086 60.7188C24.578 60.7188 24.5406 60.7188 24.5066 60.7188H24.4896C24.4896 60.7188 24.4624 60.7188 24.4488 60.7188C24.4387 60.7188 24.4319 60.7188 24.4217 60.7188C24.2993 60.7188 24.177 60.7121 24.0547 60.6986C23.2018 60.6111 22.427 60.2341 21.8154 59.6114L7.58781 45.1377L2.38542 39.843V23.4878C2.38542 21.3066 3.54755 19.2971 5.41647 18.2469L11.2475 14.9718L22.6479 8.55967L25.944 6.70838L25.9542 6.69492ZM60.5665 18.2368C62.4389 19.287 63.5976 21.2965 63.5976 23.4777V30.048L46.4885 12.646C45.3434 11.4813 43.821 10.8317 42.1968 10.8182C40.7186 10.8048 39.305 11.3265 38.1871 12.2925H38.1565L32.7061 17.843H32.6993C32.6789 17.843 32.6585 17.843 32.6381 17.843C32.6007 17.843 32.56 17.843 32.5226 17.843C32.3901 17.843 32.2575 17.8531 32.1454 17.8565C32.1352 17.8565 32.125 17.8565 32.1148 17.8565C32.0978 17.8565 32.0774 17.8565 32.0604 17.8565C29.8449 17.9608 27.6906 18.4354 25.6552 19.2668C23.6775 20.0713 21.8595 21.1955 20.2557 22.5991C18.6552 23.9994 17.3096 25.642 16.2562 27.4764C15.179 29.3547 14.4416 31.3877 14.0611 33.5217V33.5285C14.0509 33.5722 14.0441 33.6193 14.0373 33.6631L11.0742 30.6506C9.60284 29.1561 9.60284 26.7225 11.0742 25.2313L32.9949 2.93849L33.0017 2.93176L33.124 2.80722L60.5699 18.2368H60.5665ZM16.161 36.6992C16.161 36.6655 16.161 36.6353 16.161 36.6016V36.5006C16.1644 36.4535 16.1644 36.403 16.1678 36.3559C16.1678 36.2515 16.1746 36.1506 16.1814 36.0361C16.1848 35.9621 16.1882 35.8846 16.195 35.8106C16.1984 35.7466 16.2018 35.6861 16.2086 35.6221C16.2154 35.5514 16.2188 35.4807 16.2256 35.41C16.2324 35.3427 16.2392 35.272 16.246 35.2047C16.2528 35.1475 16.2596 35.0936 16.263 35.0364V35.0196C16.2732 34.9422 16.2834 34.8647 16.2936 34.7873C16.297 34.7503 16.3038 34.7166 16.3072 34.6796L16.314 34.6426C16.3275 34.5416 16.3411 34.4541 16.3513 34.37C16.3513 34.3498 16.3581 34.3329 16.3615 34.3127L16.3683 34.2757C16.3887 34.1444 16.4057 34.0468 16.4227 33.9559L16.4295 33.9189C17.0513 30.4823 18.7266 27.3687 21.2785 24.9183C22.6513 23.5988 24.2212 22.5285 25.9372 21.7408C27.6498 20.9565 29.4745 20.4651 31.3638 20.2867H31.3774C31.3774 20.2867 31.3978 20.2867 31.4046 20.2834C31.5405 20.2699 31.6561 20.2598 31.7682 20.2531C31.7852 20.2531 31.8022 20.2531 31.8226 20.2531C31.8396 20.2531 31.86 20.2531 31.877 20.2531C31.9721 20.2463 32.0774 20.2396 32.1794 20.2362C32.2201 20.2362 32.2643 20.2362 32.3051 20.2329L32.4478 20.2261C32.4954 20.2261 32.5464 20.2228 32.5939 20.2228C32.7333 20.2228 32.8726 20.2194 33.0085 20.2194H33.0493C33.09 20.2194 33.124 20.2194 33.1546 20.2194L33.7017 20.2463L33.7153 20.2329C38.007 20.4045 42.0201 22.1717 45.0375 25.2212C48.1433 28.3583 49.8526 32.5086 49.8526 36.9012V36.9887C49.8526 37.0998 49.8525 37.2075 49.8458 37.3118C49.8458 37.3825 49.8424 37.4566 49.839 37.5272C49.839 37.5946 49.8356 37.6619 49.8322 37.7258C49.8322 37.7931 49.8254 37.8605 49.822 37.9312C49.8186 38.0018 49.8118 38.0725 49.8084 38.1432C49.805 38.2004 49.7982 38.2543 49.7948 38.3115V38.325C49.788 38.4024 49.7812 38.4798 49.771 38.5606C49.7676 38.5976 49.7642 38.638 49.7574 38.675V38.7121C49.7438 38.8097 49.7336 38.8938 49.7234 38.9746C49.7234 38.9982 49.7166 39.0251 49.7132 39.0487L49.7064 39.089C49.6962 39.1766 49.6792 39.2843 49.6657 39.3886C49.6657 39.4021 49.6623 39.4122 49.6589 39.4256L49.6521 39.4593C49.6317 39.5906 49.6147 39.6983 49.5943 39.8026V39.8228C49.003 43.1349 47.4263 46.161 45.0341 48.5811C43.6002 50.0318 41.9385 51.1965 40.1036 52.0413C38.2687 52.8862 36.308 53.3911 34.276 53.5392H34.2658C34.2658 53.5392 34.2488 53.5392 34.2386 53.5392C34.1027 53.5493 33.9803 53.556 33.8682 53.5627C33.8512 53.5627 33.8308 53.5627 33.8104 53.5627C33.7934 53.5627 33.7731 53.5627 33.7527 53.5627H33.7357C33.6371 53.5661 33.5454 53.5728 33.4502 53.5728H33.44C33.3245 53.5762 33.2158 53.5796 33.107 53.5796C31.4386 53.5796 29.794 53.3439 28.2139 52.8761C27.959 52.802 27.7008 52.7179 27.4459 52.6304C27.0687 52.4991 26.6916 52.3544 26.328 52.1961C26.0833 52.0918 25.842 51.9807 25.6042 51.8663C25.3663 51.7518 25.1319 51.6307 24.9008 51.5028C24.5542 51.3143 24.211 51.1123 23.8814 50.9002C23.6605 50.7589 23.4396 50.6108 23.229 50.4627C21.1969 49.0288 19.4843 47.1371 18.2746 44.993C17.0106 42.7479 16.3072 40.3008 16.1814 37.7157V37.709C16.1746 37.5811 16.1712 37.4633 16.1678 37.3522V37.3118C16.1644 37.1974 16.161 37.1031 16.161 37.0156C16.161 37.0021 16.161 36.9853 16.161 36.9718C16.161 36.9584 16.161 36.9416 16.161 36.9281C16.161 36.8507 16.161 36.7733 16.161 36.6958V36.6992ZM2.39901 43.2359L5.882 46.7803L20.1096 61.254C20.395 61.5435 20.7076 61.806 21.0372 62.0315C22.0362 62.7114 23.2086 63.075 24.4285 63.0783H24.4455C26.0697 63.0783 27.6022 62.4388 28.7576 61.2775L34.0109 55.929C34.0415 55.929 34.0687 55.929 34.0993 55.9256C34.1808 55.9223 34.2658 55.9156 34.3473 55.9088C34.4153 55.9055 34.4832 55.8987 34.5512 55.8954C34.6396 55.8886 34.7313 55.8819 34.8196 55.8718C34.8808 55.8651 34.9386 55.8617 34.9963 55.855C35.0915 55.8449 35.19 55.8348 35.2954 55.8213H35.3022C35.3497 55.8146 35.3939 55.8112 35.4381 55.8045C35.5434 55.791 35.6556 55.7775 35.7745 55.7607H35.8051C35.8289 55.754 35.8526 55.7506 35.8764 55.7472C35.9988 55.7304 36.1279 55.7102 36.2604 55.6867L36.3114 55.6766C38.425 55.3164 40.4468 54.6129 42.3191 53.5863C44.1506 52.5832 45.7987 51.2974 47.2123 49.7625C48.6327 48.2243 49.7778 46.4774 50.6239 44.5756C51.3137 43.0205 51.786 41.3846 52.0341 39.7017L55.5137 43.2427C56.985 44.7372 56.985 47.1674 55.5137 48.6619L41.2895 63.1356L33.1172 71.4461L32.9915 71.5135L5.42666 56.0098C3.55774 54.9596 2.39561 52.9535 2.39561 50.7723V43.2359H2.39901Z" fill="#FAF8F3"/>
</g>
<defs>
<clipPath id="clip0_2797_5293">
<rect width="66" height="74.25" fill="white"/>
</clipPath>
</defs>
</svg>
